<?xml version="1.0" encoding="UTF-8" standalone="no"?>
<!DOCTYPE svg PUBLIC "-//W3C//DTD SVG 1.1//EN" "http://www.w3.org/Graphics/SVG/1.1/DTD/svg11.dtd">
<svg width="36" height="36" viewBox="0 0 300 300" version="1.1" xmlns="http://www.w3.org/2000/svg" xmlns:xlink="http://www.w3.org/1999/xlink" xml:space="preserve" xmlns:serif="http://www.serif.com/" style="fill-rule:evenodd;clip-rule:evenodd;stroke-linejoin:round;stroke-miterlimit:2;">
    <g id="Layer-1" serif:id="Layer 1" transform="matrix(4.16667,0,0,4.16667,-598.212,-602.58)">
        <g transform="matrix(2.62988,0,0,2.62988,-214.911,-213.863)">
            <circle cx="150" cy="150" r="12.046" style="fill:white;"/>
        </g>
        <g transform="matrix(1,0,0,1,-0.868394,0.493489)">
            <path d="M209.61,174.995C206.769,158.885 191.407,148.128 175.297,150.969C159.187,153.809 148.43,169.172 151.271,185.282C154.108,201.373 169.452,212.121 185.543,209.284C201.634,206.447 212.447,191.086 209.61,174.995M185.104,206.586C178.488,207.752 172.011,206.389 166.665,203.192C171.825,205.974 177.919,207.107 184.126,206.012C198.209,203.529 207.646,190.052 205.163,175.97C202.776,162.433 189.821,153.362 176.284,155.748C175.242,155.932 174.229,156.181 173.247,156.49L177.702,156.282L177.794,156.245C178.25,156.064 178.725,155.929 179.206,155.844C182.37,155.286 185.057,157.022 185.084,157.039L185.985,157.635C194.749,159.725 201.891,166.831 203.552,176.254C205.879,189.448 197.037,202.076 183.842,204.402C183.806,204.409 183.769,204.414 183.733,204.42L182.792,204.796L181.802,204.677C168.801,205.903 156.788,196.924 154.482,183.843C153.269,176.964 154.847,170.228 158.399,164.797C162.34,159.136 168.447,154.984 175.777,153.691C190.383,151.116 204.312,160.869 206.887,175.475C209.463,190.081 199.71,204.01 185.104,206.586M201.501,176.539C200.401,170.302 196.675,165.176 191.661,162.095L193.836,164.701L193.965,165.895C196.97,168.703 199.123,172.47 199.891,176.822C201.343,185.062 197.637,193.038 191.102,197.428L191.035,197.608L188.111,200.799L188.037,200.901C197.496,197.054 203.344,186.992 201.501,176.539M198.39,177.022C197.798,173.661 196.313,170.677 194.223,168.271L194.572,171.495C195.641,173.226 196.406,175.183 196.78,177.306C197.729,182.686 196.069,187.933 192.712,191.747L192.126,194.628C196.989,190.408 199.588,183.811 198.39,177.022M193.101,176.129L193.034,176.263L192.882,180.755L193.233,183.809C193.751,181.901 193.871,179.853 193.505,177.781C193.405,177.214 193.267,176.665 193.101,176.129M194.455,173.4L193.494,175.335C193.773,176.097 193.993,176.89 194.139,177.716C194.625,180.476 194.296,183.195 193.326,185.624L193.232,189.194L193.206,189.32C195.483,185.955 196.508,181.739 195.749,177.432C195.496,176.001 195.055,174.65 194.455,173.4M165.386,177.88C165.229,179.274 165.265,180.712 165.52,182.162C165.811,183.81 166.373,185.344 167.151,186.726L167.025,184.762L166.367,179.096L165.386,177.88ZM166.227,161.419C166.635,160.995 168.623,158.961 170.457,157.563C160.787,161.998 154.913,172.556 156.845,183.51C158.67,193.859 167.178,201.383 177.145,202.426L177.09,202.39L174.56,201.376L172.954,199.872C165.663,197.503 159.876,191.287 158.455,183.226C157.048,175.249 160.084,167.498 165.778,162.519L166.227,161.419ZM170.516,197.02L169.521,194.528C165.6,191.883 162.714,187.716 161.83,182.702C161.164,178.925 161.679,175.208 163.108,171.931L162.584,170.214L163.687,167.597C160.633,171.907 159.232,177.385 160.22,182.986C161.322,189.239 165.281,194.285 170.516,197.02M164.696,182.256C164.379,180.461 164.38,178.681 164.657,176.975L164.641,176.955L163.724,173.952C162.824,176.632 162.561,179.566 163.086,182.54C163.784,186.499 165.82,189.892 168.646,192.337L167.295,188.955L167.259,188.398C165.997,186.62 165.099,184.543 164.696,182.256" style="fill:rgb(0,89,175);fill-rule:nonzero;"/>
            <path d="M181.09,204.561L177.891,202.459L175.313,201.419L171.561,197.904L167.946,188.851L167.675,184.638L167.025,179.034L165.312,176.909L163.218,170.047L164.973,165.883L166.909,161.137C167.341,160.688 170.675,157.255 172.812,156.168L178.531,155.901L178.587,155.879C179.057,155.691 179.548,155.552 180.045,155.464C183.303,154.889 186.059,156.676 186.086,156.694L191.372,160.185L194.933,164.453L195.832,172.751L194.139,176.166L193.988,180.565L194.457,184.666L194.336,189.096L193.193,194.688L192.112,197.575L189.18,200.774L187.222,203.469L183.7,204.875L181.09,204.561Z" style="fill:white;fill-rule:nonzero;"/>
            <path d="M190.049,166.963L187.462,169.154L185.912,165.049L184.592,169.742L181.992,164.832L179.121,169.633L173.778,164.628L169.853,168.129L166.115,173.166L165.508,169.721L168.657,163.219L171.484,158.177L179.318,159.035L184.586,158.715L189.494,161.94L192.25,166.327L193.474,169.993L190.049,166.963ZM193.759,187.537C193.811,190.171 191.916,194.883 191.916,194.883L189.757,197.163L189.616,194.958L184.437,193.347L182.445,194.57L179.961,193.604L174.391,197.147C174.391,197.147 176.082,200.648 173.029,197.387C169.976,194.126 169.237,188.061 169.237,188.061L168.655,184.759L171.047,186.703C171.03,186.999 171.047,187.299 171.1,187.6C171.517,189.967 174.008,191.507 176.662,191.039C179.317,190.571 181.13,188.272 180.713,185.905C180.708,185.877 180.701,185.848 180.695,185.82L182.282,185.415C182.29,185.484 182.3,185.554 182.312,185.623C182.73,187.99 185.22,189.53 187.875,189.062C190.529,188.594 192.343,186.295 191.925,183.928C191.82,183.329 191.58,182.782 191.239,182.308L193.485,180.498C193.561,182.084 193.72,185.551 193.759,187.537M188.749,198.002L187.358,200.89L185.516,201.215L185.406,198.715L180.679,199.548L181.176,200.493L181.11,201.992L179.611,201.925L176.433,200.297L176.964,197.684L181.45,196.893L182.816,197.35L184.214,196.406L186.536,196.694L188.459,196.355L188.749,198.002ZM177.283,185.354C177.36,185.794 176.972,186.23 176.415,186.328C175.858,186.426 175.343,186.149 175.266,185.709C175.188,185.27 175.577,184.833 176.134,184.735C176.691,184.637 177.205,184.914 177.283,185.354M187.364,183.576C187.441,184.016 187.053,184.452 186.496,184.551C185.939,184.649 185.425,184.372 185.347,183.932C185.27,183.492 185.658,183.056 186.215,182.958C186.772,182.859 187.286,183.136 187.364,183.576M167.599,178.851L168.636,176.686L168.349,173.185L170.63,171.131L173.49,168.148L179.823,175.291L182.236,169.497L183.833,172.932L186.321,170.181L187.419,171.722L190.247,169.489L191.811,172.269L193.411,179.509L190.699,181.693C189.634,180.695 188.031,180.196 186.363,180.49C184.095,180.89 182.442,182.627 182.269,184.6L180.456,185.044C179.658,183.179 177.467,182.059 175.151,182.467C173.195,182.812 171.697,184.151 171.21,185.778L168.438,183.529L168.065,181.412L167.599,178.851ZM191.614,159.914L186.285,156.393C186.285,156.393 182.544,153.914 178.454,155.544L172.719,155.812C170.363,156.971 166.602,160.938 166.602,160.938L164.641,165.744L162.836,170.027L164.989,177.081L166.68,179.178L167.316,184.66L167.591,188.931L171.257,198.112L175.116,201.727L177.694,202.759L180.963,204.908L183.748,205.243L187.452,203.764L189.446,201.017L192.424,197.766L193.546,194.76L194.697,189.106L194.815,184.625L194.349,180.577L194.496,176.256L196.202,172.816L195.28,164.306L191.614,159.914Z" style="fill:rgb(35,31,32);fill-rule:nonzero;"/>
        </g>
    </g>
</svg>
