<svg xmlns="http://www.w3.org/2000/svg" viewBox="0 0 1000 1000">
  <g fill="#eeeeee" fill-rule="evenodd">
    <path d="M 667.024 31.7858 L 881.679 32.5131 C 929.587 32.5131 968.159 69.434 968.159 115.294 L 968.159 880.873 C 968.159 926.733 929.587 963.65 881.679 963.65 L 137.293 963.65 C 210.056 895.185 271.913 784.172 291.714 623.514 C 303.707 641.259 317.409 658.092 333.257 673.436 C 474.344 810.034 704.097 797.803 839.803 667.938 C 943.129 569.055 971.697 428.426 936.438 304.556 C 931.398 286.854 925.063 269.445 917.466 252.49 C 897.199 207.268 867.875 165.123 829.957 129.175 C 781.489 83.2256 724.739 51.2708 664.478 32.5131 L 667.024 31.7858 Z"/>
    <path d="M 542.563 75.1939 C 632.57 72.0187 711.378 98.2646 780.07 163.383 C 809.299 191.091 831.991 223.675 847.714 258.751 C 853.611 271.901 858.53 285.407 862.44 299.136 C 889.839 395.239 868.13 502.377 789.603 577.525 C 688.55 674.226 516.783 683.603 413.285 583.394 C 326.649 499.519 318.777 357.923 409.84 272.812 C 485.348 202.243 612.194 195.728 688.092 271.193 C 750.356 333.101 755.838 436.594 687.967 498.142 C 632.926 548.061 541.406 552.229 487.342 496.59 C 444.051 452.032 440.657 378.366 490.2 335.189 C 529.327 301.091 593.631 298.655 630.975 338.923 C 660.024 370.241 661.874 421.379 626.235 450.769 C 598.977 473.253 554.751 474.461 529.655 445.549 C 510.808 423.831 510.029 388.834 535.755 369.283 C 554.697 354.881 585.013 354.541 601.612 375.735 C 604.287 379.156 606.09 382.918 607.45 386.793 C 606.093 379.578 603.372 372.501 598.12 366.839 C 578.428 345.606 541.945 346.967 519.782 366.279 C 489.762 392.439 491.894 439.546 519.496 467.951 C 555.682 505.196 619.506 502.299 657.756 467.607 C 706.67 423.248 702.603 346.259 656.434 300.352 C 598.57 242.82 499.382 247.899 440.532 302.902 C 367.969 370.722 374.37 485.907 444.528 553.836 C 529.819 636.418 674.14 628.554 758.548 547.783 C 859.949 450.746 849.415 288.308 749.155 193.269 C 630.013 80.3203 432.262 92.1059 316.709 204.804 C 248.658 271.177 214.193 365.31 221.224 458.179 C 221.243 458.515 221.259 458.848 221.263 459.18 C 228.145 726.026 126.301 857.271 41.5968 907.768 C 38.6289 899.388 37.0218 890.395 37.0218 881.033 L 37.0218 859.503 C 103.317 809.8 183.368 693.95 177.35 460.244 C 169.733 355.819 208.238 250.555 285.348 175.348 C 351.35 110.973 453.068 78.5255 543.075 75.3503 L 542.563 75.1939 Z"/>
    <path d="M 391.497 30.773 C 387.896 31.8562 392.666 29.3145 388.424 31.6333 C 326.16 52.2483 255.317 93.0483 205.09 142.032 C 109.784 234.988 62.8414 362.772 70.92 490.361 C 70.8888 490.435 70.8575 490.509 70.8262 490.58 L 70.8418 490.732 L 70.8418 490.771 C 73.4813 593.819 58.0787 666.992 37.0218 718.424 L 37.0218 115.294 C 37.0218 69.434 75.5889 32.5131 123.498 32.5131 L 362.06 32.7868 L 391.497 30.773 Z"/>
  </g>
</svg>
