<svg xmlns="http://www.w3.org/2000/svg" viewBox="0 0 1000 1000" width="1000" height="1000">
  <g data-curvz-guide-layer="1" data-curvz-guide-color="0,0.749,1">
  </g>
  <g data-curvz-layer="1" id="Layer 1">
    <path id="path1" data-curvz-name="Spiral" fill-rule="evenodd" d="M 440.934 590.069 C 450.517 593.286 453.556 606.108 447.722 618.707 C 441.888 631.306 429.39 638.912 419.807 635.695 C 410.224 632.478 407.185 619.656 413.019 607.057 C 418.853 594.458 431.351 586.852 440.934 590.069 Z M 482.766 517.519 C 482.766 517.519 472.889 507.747 467.014 505.002 C 464.573 503.712 454.828 499.491 452.133 498.569 C 449.438 497.646 438.843 494.939 435.911 494.439 C 435.273 494.33 432.682 493.94 432.038 493.856 C 430.134 493.607 422.646 493.055 420.695 493.02 C 418.743 492.984 411.55 493.231 409.569 493.403 C 407.589 493.574 400.71 494.515 398.72 494.888 C 396.73 495.261 390.163 496.814 388.181 497.382 C 384.217 498.518 371.945 503.264 368.127 505.147 C 364.31 507.03 353.143 513.806 349.622 516.39 C 346.101 518.974 336.09 527.778 333.014 531.017 C 329.939 534.255 321.357 545.148 318.877 548.995 C 317.637 550.919 314.042 557.137 312.978 559.204 C 311.915 561.271 308.881 567.968 308.014 570.173 C 307.146 572.378 304.754 579.495 304.101 581.832 C 303.447 584.169 301.771 591.62 301.351 594.083 C 300.921 596.598 299.996 604.934 299.86 607.522 C 299.723 610.11 299.739 618.168 299.887 620.804 C 300.035 623.439 300.871 631.18 301.295 633.836 C 301.719 636.493 303.279 643.908 303.972 646.56 C 305.358 651.863 310.405 665.772 312.817 670.899 C 315.229 676.026 322.638 688.711 326.012 693.454 C 329.385 698.197 339.123 709.573 343.394 713.723 C 347.666 717.874 359.782 727.62 364.886 730.97 C 367.439 732.644 374.374 736.722 377.123 738.158 C 379.871 739.593 387.355 743.032 390.291 744.202 C 393.228 745.372 401.195 748.079 404.312 748.958 C 407.429 749.837 415.789 751.727 419.078 752.289 C 422.367 752.851 431.489 753.862 434.874 754.041 C 438.259 754.22 447.122 754.201 450.568 754.008 C 454.015 753.815 462.571 752.89 466.045 752.335 C 469.519 751.78 477.753 750.048 481.22 749.142 C 488.155 747.33 503.684 741.694 510.389 738.539 C 517.094 735.385 531.313 727.081 537.515 722.67 C 543.718 718.258 556.477 707.339 561.905 701.754 C 567.332 696.168 578.248 682.605 582.629 675.93 C 584.819 672.592 589.377 664.841 591.254 661.246 C 593.131 657.652 596.973 649.294 598.503 645.454 C 600.033 641.614 603.057 632.714 604.207 628.639 C 605.356 624.563 607.47 615.217 608.205 610.916 C 608.939 606.615 610.064 596.464 610.298 592.038 C 610.531 587.612 610.51 577.695 610.257 573.188 C 610.004 568.682 608.964 559.058 608.238 554.515 C 607.512 549.972 605.555 540.668 604.37 536.134 C 602 527.066 595.593 509.417 591.469 500.65 C 587.344 491.882 577.87 475.657 572.101 467.546 C 566.332 459.436 553.869 444.866 546.565 437.769 C 539.261 430.671 523.805 418.226 515.076 412.498 C 510.712 409.634 501.893 404.448 497.193 401.993 C 492.494 399.538 482.991 395.17 477.969 393.168 C 472.948 391.167 462.83 387.728 457.5 386.225 C 452.17 384.722 441.535 382.316 435.911 381.355 C 430.287 380.395 418.789 379.123 413.002 378.817 C 407.214 378.511 395.92 378.536 390.027 378.867 C 384.134 379.197 373.114 380.389 367.174 381.339 C 361.234 382.288 350.53 384.54 344.601 386.09 C 332.742 389.189 312.323 396.603 300.858 401.996 C 289.393 407.39 270.544 418.395 259.938 425.939 C 249.332 433.483 232.396 447.965 223.115 457.516 C 213.834 467.067 199.388 484.998 191.898 496.412 C 188.153 502.119 182.145 512.333 178.935 518.479 C 175.724 524.625 170.667 535.624 168.05 542.191 C 165.433 548.757 161.452 560.468 159.487 567.438 C 157.521 574.407 154.732 586.729 153.477 594.083 C 152.221 601.437 150.755 614.695 150.355 622.263 C 149.955 629.831 149.985 642.927 150.418 650.633 C 150.85 658.339 152.24 671.184 153.481 678.951 C 154.722 686.719 157.361 699.253 159.387 707.007 C 163.44 722.513 172.171 746.557 179.224 761.549 C 186.277 776.541 199.283 798.821 209.148 812.69 C 219.013 826.559 236.137 846.59 248.626 858.726 C 261.115 870.863 282.282 887.924 297.208 897.719 C 304.67 902.616 316.709 909.699 324.746 913.896 C 332.783 918.094 345.739 924.052 354.326 927.474 C 362.913 930.896 376.707 935.587 385.821 938.157 C 394.935 940.727 409.461 944.016 419.078 945.658 C 428.695 947.301 444.254 949.019 454.15 949.543 C 464.047 950.066 479.498 950.028 489.575 949.463 C 499.652 948.898 514.883 947.248 525.04 945.625 C 535.198 944.002 550.126 940.86 560.264 938.21 C 580.542 932.91 609.324 922.456 628.928 913.233 C 648.533 904.01 675.3 888.387 693.436 875.487 C 711.571 862.587 735.65 842.01 751.52 825.678 C 767.39 809.347 787.872 783.948 800.68 764.431 C 807.084 754.672 815.572 740.247 821.061 729.738 C 826.55 719.228 833.686 703.713 838.161 692.485 C 842.636 681.256 848.254 664.736 851.615 652.819 C 854.976 640.901 858.919 623.492 861.066 610.916 C 863.214 598.34 865.263 579.772 865.947 566.83 C 866.631 553.889 866.585 535.357 865.846 522.18 C 865.107 509.003 863.118 490.652 860.996 477.369 C 858.874 464.087 855.072 446.029 851.607 432.771 C 844.676 406.255 831.969 371.277 819.909 345.641 C 807.848 320.004 788.803 287.371 771.934 263.655 C 755.065 239.94 729.973 210.569 708.616 189.817 C 687.26 169.064 656.328 144.109 630.805 127.36 C 618.044 118.986 600.499 108.661 586.757 101.483 C 573.014 94.3054 554.153 85.629 539.469 79.7774 C 524.786 73.9258 504.703 67.0945 489.119 62.6995 C 473.535 58.3045 436.108 50.7248 435.911 50.6985 C 415.421 46.5562 392.033 63.8795 386.356 88.4632 C 380.678 113.047 393.87 143.554 419.078 149.272 C 432.611 152.341 446.392 154.55 461.976 158.945 C 477.56 163.34 487.765 166.821 502.449 172.672 C 517.132 178.524 526.716 182.942 540.459 190.12 C 554.201 197.298 563.179 202.591 575.941 210.966 C 601.463 227.714 617.57 240.781 638.927 261.534 C 660.283 282.287 673.578 297.904 690.447 321.619 C 707.316 345.335 717.361 362.573 729.422 388.209 C 741.482 413.846 747.926 431.541 754.856 458.057 C 758.321 471.315 760.126 479.864 762.249 493.146 C 764.371 506.429 765.264 514.603 766.003 527.781 C 766.742 540.958 766.771 548.61 766.087 561.552 C 765.403 574.493 764.641 581.507 762.493 594.083 C 760.346 606.659 758.73 613.758 755.369 625.676 C 752.008 637.593 749.741 644.235 745.266 655.464 C 740.791 666.693 737.913 672.931 732.424 683.44 C 726.935 693.949 723.479 699.807 717.075 709.566 C 704.267 729.083 695.673 739.657 679.802 755.989 C 663.932 772.321 653.607 781.1 635.472 794 C 617.336 806.9 605.964 813.523 586.36 822.746 C 566.755 831.969 555.256 836.16 534.978 841.46 C 524.84 844.11 519.421 845.255 509.264 846.878 C 499.106 848.501 494.052 849.055 483.975 849.62 C 473.898 850.185 469.326 850.205 459.429 849.682 C 449.532 849.159 445.528 848.728 435.911 847.085 C 426.294 845.443 422.078 844.481 412.964 841.911 C 403.85 839.341 399.933 838.001 391.346 834.579 C 382.759 831.157 379.08 829.457 371.044 825.259 C 363.007 821.062 359.535 819.011 352.072 814.114 C 337.147 804.319 330.805 799.145 318.315 787.009 C 305.826 774.873 300.501 768.595 290.635 754.726 C 280.77 740.857 276.764 733.972 269.711 718.98 C 262.658 703.988 260.19 697.227 256.137 681.721 C 254.111 673.967 253.47 670.942 252.229 663.174 C 250.988 655.407 250.693 652.739 250.261 645.033 C 249.828 637.327 249.815 635.11 250.215 627.542 C 250.615 619.974 250.794 618.27 252.05 610.916 C 253.305 603.562 253.767 601.55 255.733 594.581 C 257.698 587.612 258.328 585.778 260.945 579.211 C 263.562 572.645 264.361 570.923 267.571 564.777 C 270.782 558.631 271.758 556.984 275.503 551.277 C 282.993 539.863 285.551 536.757 294.832 527.206 C 304.113 517.655 307.296 514.97 317.902 507.426 C 328.508 499.882 331.962 497.877 343.427 492.484 C 354.892 487.09 358.028 485.939 369.887 482.84 C 375.816 481.29 377.011 481.035 382.951 480.086 C 388.891 479.137 389.734 479.04 395.627 478.71 C 401.52 478.379 401.935 478.371 407.723 478.677 C 413.511 478.983 413.454 478.968 419.078 479.929 C 424.702 480.889 425.027 480.968 430.357 482.471 C 435.687 483.974 435.927 484.062 440.949 486.063 C 445.97 488.065 446.196 488.175 450.896 490.63 C 455.595 493.084 455.847 493.239 460.212 496.103 C 468.94 501.831 475.431 507.993 476.875 509.486 C 479.834 512.544 482.766 517.519 482.766 517.519 Z" fill="currentColor" stroke="none" stroke-width="2"/>
  </g>
</svg>
