<svg xmlns="http://www.w3.org/2000/svg" viewBox="0 0 1000 1000" width="1000" height="1000">
  <g data-curvz-guide-layer="1" data-curvz-guide-color="0,0.749,1">
  </g>
  <g data-curvz-layer="1" id="Layer 1">
    <path id="path1" d="M 50 43.102 C 48.8268 44.0808 160.704 22.6898 233.341 99.1135 C 314.346 164.607 341.13 343.334 458.5 365.421 C 565.957 364.877 720.232 267.81 812.922 289.456 C 909.123 299.344 949.068 403.56 949.433 401.467 C 949.433 401.467 949.739 435.451 950.198 486.427 C 950.658 537.404 951.27 605.372 951.882 673.34 C 952.494 741.308 953.106 809.276 953.566 860.253 C 954.025 911.229 954.331 945.213 954.331 945.213 C 953.829 948.056 902.536 783.336 801.678 733.118 C 702.121 667.207 548.276 748.716 386.432 704.778 C 177.1 640.557 218.287 440.873 176.62 376.161 C 148.869 299.517 52.353 337.163 52.8602 335.581 C 52.8602 335.581 52.6814 317.301 52.4133 289.881 C 52.1452 262.461 51.7876 225.901 51.4301 189.341 C 51.0726 152.782 50.715 116.222 50.4469 88.8018 C 50.1788 61.3819 50 43.102 50 43.102 Z" fill="currentColor" stroke="none" stroke-width="2"/>
  </g>
</svg>
