<svg xmlns="http://www.w3.org/2000/svg" viewBox="0 0 1000 1000" width="1000" height="1000">
  <g data-curvz-guide-layer="1" data-curvz-guide-color="0,0.749,1">
  </g>
  <g data-curvz-layer="1" id="Layer 1">
    <path data-curvz-compound="1" id="compound1" data-curvz-name="Compound 1" fill-rule="evenodd" d="M 499.961 276.206 L 542.444 406.954 C 552.941 439.259 573.926 454.506 607.895 454.506 L 745.371 454.506 L 634.15 535.313 C 606.669 555.279 598.654 579.949 609.15 612.255 L 651.633 743.002 L 540.412 662.196 C 512.931 642.23 486.992 642.23 459.511 662.196 L 348.29 743.002 L 390.773 612.255 C 401.269 579.949 393.253 555.279 365.773 535.313 L 254.552 454.506 L 392.028 454.506 C 425.996 454.506 446.982 439.259 457.479 406.954 L 499.961 276.206 Z M 469.06 59.8534 C 475.586 39.7691 524.337 39.7691 530.863 59.8534 L 628.748 361.111 L 945.509 361.111 C 966.627 361.111 981.692 407.477 964.607 419.89 L 708.342 606.078 L 806.227 907.335 C 812.752 927.42 773.311 956.075 756.227 943.663 L 499.961 757.475 L 243.696 943.663 C 226.611 956.075 187.17 927.42 193.696 907.335 L 291.581 606.078 L 35.3155 419.89 C 18.2307 407.477 33.2958 361.111 54.4138 361.111 L 371.175 361.111 L 469.06 59.8534 Z" fill="currentColor" stroke="none" stroke-width="2"/>
  </g>
</svg>
