<svg xmlns="http://www.w3.org/2000/svg" viewBox="0 0 1000 1000" width="1000" height="1000">
  <g data-curvz-layer="1" id="Layer 1">
    <path id="obj5" d="M 71.2545 927.843 L 105.764 886.635 C 111.694 890.485 117.558 893.949 122.78 896.671 C 136.056 903.592 154.826 910.807 169.044 914.646 C 183.261 918.485 202.391 921.675 217.457 922.895 C 232.523 924.114 251.458 924.177 267.28 923.24 C 283.102 922.302 301.721 920.136 318.206 917.505 C 334.691 914.874 353.053 911.209 370.109 907.347 C 387.164 903.484 405.337 898.913 422.869 894.282 C 440.402 889.651 458.404 884.684 476.321 879.748 C 494.239 874.811 512.033 869.916 530.242 865.137 C 548.451 860.358 565.953 855.976 584.36 851.817 C 602.768 847.658 619.852 844.199 638.366 841.123 C 656.879 838.047 673.4 835.879 691.927 834.348 C 710.454 832.817 726.281 832.25 744.728 832.728 C 763.176 833.205 778.252 834.494 796.527 837.442 C 814.802 840.391 829.218 843.782 847.228 849.664 C 853.319 851.653 858.953 853.638 865.165 854.867 L 827.184 900.221 L 865.21 932.067 L 969.103 808.009 L 931.077 776.163 L 896.848 817.035 C 885.783 810.811 873.53 806.076 862.627 802.515 C 844.618 796.633 822.702 791.424 804.427 788.476 C 786.152 785.527 764.459 783.622 746.012 783.144 C 727.564 782.667 706.37 783.385 687.843 784.916 C 669.316 786.447 648.749 789.117 630.235 792.194 C 611.721 795.27 591.837 799.278 573.429 803.437 C 555.022 807.596 535.86 812.383 517.651 817.162 C 499.442 821.941 481.065 826.993 463.147 831.929 C 445.23 836.865 427.736 841.696 410.204 846.326 C 392.671 850.957 376.209 855.109 359.154 858.971 C 342.099 862.834 326.874 865.894 310.389 868.525 C 293.904 871.156 280.169 872.789 264.347 873.726 C 248.525 874.664 236.525 874.676 221.458 873.456 C 206.392 872.237 196.191 870.6 181.973 866.761 C 167.755 862.922 158.985 859.609 145.708 852.688 C 142.866 851.207 140.26 849.793 137.791 848.392 L 175.147 803.785 L 137.121 771.94 L 33.2279 895.997 L 71.2545 927.843 Z" data-curvz-types="K K K K K K K K K K K K K K K K K K K K K K K K K K K K K K K K K K K K K K K K K K" data-curvz-name="Union" fill="currentColor" stroke="currentColor" stroke-width="2"/>
    <path data-curvz-compound="1" id="imp1" data-curvz-name="compound1" fill-rule="evenodd" d="M 283.021 790.527 L 396.52 38.8516 L 784.874 692.364 L 684.504 711.997 L 590.906 553.146 L 410.239 588.485 L 383.392 770.895 L 283.021 790.527 Z M 422.681 492.262 L 543.125 468.703 L 445.601 289.778 L 422.681 492.262 Z" data-curvz-types="M K K K K K K|M K K" data-curvz-child-ids="compound1_0,compound1_1" fill="currentColor" stroke="none" stroke-width="2"/>
  </g>
  <g data-curvz-guide-layer="1" data-curvz-guide-color="0,0.749,1">
  </g>
  <g data-curvz-layer="1" id="Layer 1">
  </g>
</svg>
