<svg data-curvz-export-units="px" data-curvz-export-size="1000.0000" data-curvz-export-fit="width" xmlns="http://www.w3.org/2000/svg" viewBox="0 0 1000 1000" width="1000" height="1000" data-curvz-intended-w="48" data-curvz-intended-h="48">
  <g data-curvz-layer="1" id="Layer_1¶60c5d503" data-curvz-iid="60c5d503-257c-4aef-86d7-5ddd1ef270f9" data-curvz-name="Layer 1">
    <path id="Rectangle_1¶3ed2a00f" data-curvz-iid="3ed2a00f-de4b-45af-92da-73df4054b357" d="M 865.534 50 C 893.689 50 921.845 50 950 50 C 950 64.1803 950 78.3607 950 92.541 C 950 94.9355 950 99.7246 950 99.7246 C 950 99.7246 948.815 100.909 948.223 101.501 C 665.39 384.334 99.7246 950 99.7246 950 C 99.7246 950 94.8431 950 92.4023 950 C 78.2682 950 64.1341 950 50 950 C 50 921.858 50 893.715 50 865.573 C 50 863.15 50 858.303 50 858.303 L 50.001 858.303 C 50.001 858.303 51.1025 857.201 51.6533 856.65 C 320.537 587.767 858.304 50 858.304 50 C 858.304 50 863.124 50 865.534 50 Z" data-curvz-types="M K M K M K M K M K K M K" data-curvz-name="Rectangle 1" fill="currentColor" stroke="none" stroke-width="0"/>
    <path id="Rectangle_1_4¶b777c7e3" data-curvz-iid="b777c7e3-e1ec-410c-a1bf-c1ba8140a5d7" d="M 950 948.253 C 949.418 948.835 948.835 949.418 948.253 950 C 901.112 950 853.972 950 806.831 950 C 854.554 902.277 902.277 854.554 950 806.831 C 950 853.972 950 901.112 950 948.253 Z" data-curvz-types="K K K K" data-curvz-name="Rectangle 1 (4)" fill="currentColor" stroke="none" stroke-width="0"/>
    <path id="Rectangle_1_3¶a3950e97" data-curvz-iid="a3950e97-8bb5-4fd9-ae1a-a6ec9090a6e4" d="M 950 523.988 C 950 523.988 950 527.098 950 528.652 C 950 574.238 950 665.41 950 665.41 C 950 665.41 948.031 667.379 947.047 668.363 C 853.168 762.242 759.288 856.121 665.409 950 C 665.345 950 665.216 950 665.216 950 C 665.216 950 662.627 950 661.332 950 C 615.551 950 523.989 950 523.989 950 C 523.989 950 525.795 948.193 526.698 947.29 C 667.799 806.189 950 523.988 950 523.988 Z" data-curvz-types="K M K M M K M K M" data-curvz-name="Rectangle 1 (3)" fill="currentColor" stroke="none" stroke-width="0"/>
    <path id="Rectangle_1_2¶4bb7c0d4" data-curvz-iid="4bb7c0d4-5fab-4557-89c2-4c28e5e76c0b" d="M 950 241.147 C 950 241.147 950 243.478 950 244.644 C 950 290.618 950 336.593 950 382.567 C 949.999 382.568 949.998 382.569 949.998 382.569 C 949.998 382.569 948.255 384.312 947.384 385.184 C 759.112 573.456 382.567 950 382.567 950 C 382.567 950 379.151 950 377.443 950 C 332.011 950 241.146 950 241.146 950 C 241.146 950 242.548 948.598 243.249 947.897 C 478.833 712.313 714.416 476.729 950 241.146 C 950 241.146 950 241.147 950 241.147 Z" data-curvz-types="K M M K M K M K M M" data-curvz-name="Rectangle 1 (2)" fill="currentColor" stroke="none" stroke-width="0"/>
  </g>
  <g data-curvz-guide-layer="1" data-curvz-guide-color="0,0.749,1" data-curvz-iid="ed62bb91-c9d9-4faf-8788-00ced836e8e5" data-curvz-name="Guides">
  </g>
</svg>
