<svg data-curvz-export-units="px" data-curvz-export-size="1000.0000" data-curvz-export-fit="width" xmlns="http://www.w3.org/2000/svg" viewBox="0 0 1000 1000" width="1000" height="1000">
  <g data-curvz-layer="1" id="Layer_1¶a1061312" data-curvz-iid="a1061312-bad2-4d6d-9b14-20020f026ea2" data-curvz-name="Layer 1">
    <path id="Intersect¶51259e5f" data-curvz-iid="51259e5f-c81f-4c37-b863-d1a353b14e09" d="M 548.237 812.373 C 548.237 817.873 548.237 828.873 548.237 828.873 L 548.237 829.01 C 548.237 829.01 536.309 823.701 530.406 820.881 C 475.11 791.85 431.255 747.411 399.301 694.046 C 366.039 634.019 349.55 567.456 348.443 498.982 C 349.55 430.497 366.041 363.935 399.301 303.918 C 431.257 250.544 475.121 206.109 530.406 177.083 C 536.309 174.263 548.237 168.954 548.237 168.954 C 548.237 168.954 548.237 597.9 548.237 812.373 Z" data-curvz-types="M K K M M M M M K" data-curvz-name="Intersect" fill="currentColor" stroke="currentColor" stroke-width="0"/>
    <path data-curvz-compound="1" id="Compound_2¶1cc5b991" data-curvz-iid="1cc5b991-f36f-4f90-bb32-a9b56c61eb58" data-curvz-name="Compound 2" fill-rule="evenodd" d="M 99.4447 99.6627 L 500.555 99.6627 L 500.555 900.337 L 99.4447 900.337 L 99.4447 99.6627 Z M 51.7627 51.0183 L 548.237 51.0183 L 548.237 948.982 L 51.7627 948.982 L 51.7627 51.0183 Z" data-curvz-types="K K K K|K K K K" data-curvz-child-ids="701e2b4a,a2834a51" fill="currentColor" stroke="currentColor" stroke-width="0"/>
    <path data-curvz-compound="1" id="Compound_1¶331ac0e2" data-curvz-iid="331ac0e2-eeb0-4e78-bbf8-1a5aa4c00c7b" data-curvz-name="Compound 1" fill-rule="evenodd" d="M 648.34 198.982 C 786.412 198.982 898.34 333.296 898.34 498.982 C 898.34 664.667 786.412 798.982 648.34 798.982 C 510.269 798.982 398.34 664.667 398.34 498.982 C 398.34 333.296 510.269 198.982 648.34 198.982 Z M 648.34 148.982 C 813.969 148.982 948.237 305.682 948.237 498.982 C 948.237 692.281 813.969 848.982 648.34 848.982 C 482.712 848.982 348.443 692.281 348.443 498.982 C 348.443 305.682 482.712 148.982 648.34 148.982 Z" data-curvz-types="M M M M|M M M M" data-curvz-child-ids="e6dc9225,af09609e" fill="currentColor" stroke="currentColor" stroke-width="0"/>
  </g>
  <g data-curvz-ref-layer="1" data-curvz-color="#D91ABF" data-curvz-iid="ebcada5d-555c-430b-a4a9-726dd3ce871f" data-curvz-name="References">
  </g>
  <g data-curvz-guide-layer="1" data-curvz-guide-color="0,0.749,1" data-curvz-iid="1ce42b81-b85a-4f7e-a217-f03fb9a7a53e" data-curvz-name="Guides">
  </g>
</svg>
