<svg data-curvz-export-units="px" data-curvz-export-size="48.0000" data-curvz-export-fit="width" xmlns="http://www.w3.org/2000/svg" viewBox="0 0 1000 1000" width="48" height="48" data-curvz-intended-w="48" data-curvz-intended-h="48">
  <g data-curvz-layer="1" id="Layer_1¶f3f6e161" data-curvz-iid="f3f6e161-48d7-40dd-884d-781e9c1b9d87" data-curvz-name="Layer 1">
    <path data-curvz-compound="1" id="Compound_1¶f74d9303" data-curvz-iid="f74d9303-8fe1-4c96-b7d7-d1055da19787" data-curvz-name="Compound 1" fill-rule="evenodd" d="M 500 663.116 C 526.061 663.116 547.187 684.243 547.187 710.303 C 547.187 736.364 526.061 757.49 500 757.49 C 473.939 757.49 452.813 736.364 452.813 710.303 C 452.813 684.243 473.939 663.116 500 663.116 Z M 442.666 286.447 C 441.502 271.194 458.16 257.287 477.489 248.843 C 496.817 240.399 503.197 240.399 522.526 248.843 C 541.854 257.287 558.349 271.959 557.349 286.447 L 539.252 595.135 C 538.11 609.989 525.724 621.458 510.827 621.458 L 489.187 621.458 C 474.29 621.458 461.904 609.989 460.762 595.135 L 442.666 286.447 Z M 142.388 351.872 L 351.872 142.388 L 648.128 142.388 L 857.612 351.872 L 857.612 648.128 L 648.128 857.612 L 351.872 857.612 L 142.388 648.128 L 142.388 351.872 Z M 50 313.604 L 313.604 50 L 686.396 50 L 950 313.604 L 950 686.396 L 686.396 950 L 313.604 950 L 50 686.396 L 50 313.604 Z" data-curvz-types="M M M M|M M M M K K K K|K K K K K K K K|K K K K K K K K" data-curvz-child-ids="Ellipse_1¶73af941e,Rectangle_1¶f38b117b,Offset_Inside¶5493feb3,Polygon_1¶00240d64" fill="currentColor" stroke="none"/>
  </g>
  <g data-curvz-guide-layer="1" data-curvz-guide-color="0,0.749,1" data-curvz-iid="d04114f7-95a8-407e-8776-02f71835dc25" data-curvz-name="Guides">
  </g>
</svg>
