<svg data-curvz-export-units="px" data-curvz-export-size="1000.0000" data-curvz-export-fit="width" xmlns="http://www.w3.org/2000/svg" viewBox="0 0 1000 1000" width="1000" height="1000" data-curvz-intended-w="48" data-curvz-intended-h="48">
  <g data-curvz-layer="1" id="Layer_1¶231e42aa" data-curvz-iid="231e42aa-be5b-4486-9d28-c01cd2213c81" data-curvz-name="Layer 1">
    <path id="Rectangle_1_2¶dc63af87" data-curvz-iid="dc63af87-5876-49dc-87a2-302ba28db660" d="M 950 850 L 50 850 L 50 950 L 950 950 L 950 850 Z" data-curvz-types="K K K K" data-curvz-name="Rectangle 1 (2)" fill="currentColor" stroke="currentColor" stroke-width="0"/>
    <path id="Rectangle_1_7¶3d77318e" data-curvz-iid="3d77318e-4881-41b2-bfd8-14c01143a5c8" d="M 950 950 L 950 50 L 850 50 L 850 950 L 950 950 Z" data-curvz-types="K K K K" data-curvz-name="Rectangle 1 (7)" fill="currentColor" stroke="currentColor" stroke-width="0"/>
    <path id="Rectangle_1_3¶ca287241" data-curvz-iid="ca287241-c5b1-4095-ac8a-f477ee42c828" d="M 950 650 L 50 650 L 50 750 L 950 750 L 950 650 Z" data-curvz-types="K K K K" data-curvz-name="Rectangle 1 (3)" fill="currentColor" stroke="currentColor" stroke-width="0"/>
    <path id="Rectangle_1_6¶8d2bc473" data-curvz-iid="8d2bc473-971a-4dab-810d-50115bd516e1" d="M 150 950 L 150 50 L 50 50 L 50 950 L 150 950 Z" data-curvz-types="K K K K" data-curvz-name="Rectangle 1 (6)" fill="currentColor" stroke="currentColor" stroke-width="0"/>
    <path id="Rectangle_1_4¶e271c30c" data-curvz-iid="e271c30c-54c8-4721-889b-a6d77e5dff61" d="M 950 450 L 50 450 L 50 550 L 950 550 L 950 450 Z" data-curvz-types="K K K K" data-curvz-name="Rectangle 1 (4)" fill="currentColor" stroke="currentColor" stroke-width="0"/>
    <path id="Rectangle_1¶033f0317" data-curvz-iid="033f0317-a977-4595-bd46-d8e7c14e75c6" d="M 950 50 L 50 50 L 50 150 L 950 150 L 950 50 Z" data-curvz-types="K K K K" data-curvz-name="Rectangle 1" fill="currentColor" stroke="currentColor" stroke-width="0"/>
    <path id="Rectangle_1_5¶0494aed7" data-curvz-iid="0494aed7-1c05-48d5-9ea0-873e719942e2" d="M 950 250 L 50 250 L 50 350 L 950 350 L 950 250 Z" data-curvz-types="K K K K" data-curvz-name="Rectangle 1 (5)" fill="currentColor" stroke="none" stroke-width="0"/>
  </g>
  <g data-curvz-guide-layer="1" data-curvz-guide-color="0,0.749,1" data-curvz-iid="4081c4a7-7838-426d-8040-442fd0f574ef" data-curvz-name="Guides">
  </g>
</svg>
