<svg data-curvz-export-units="px" data-curvz-export-size="1000.0000" data-curvz-export-fit="width" xmlns="http://www.w3.org/2000/svg" viewBox="0 0 1000 1000" width="1000" height="1000" data-curvz-intended-w="48" data-curvz-intended-h="48">
  <g data-curvz-layer="1" id="Layer_1¶9f28cab2" data-curvz-iid="9f28cab2-dddd-4fb5-9bd1-0f7b4297e974" data-curvz-name="Layer 1">
    <path id="Rectangle_1¶4933eeb2" data-curvz-iid="4933eeb2-aa9e-49e1-873e-0d5698acbde9" d="M 50 50 L 796.2 50 L 796.2 150 L 50 150 L 50 50 Z" data-curvz-types="K K K K" data-curvz-name="Rectangle 1" fill="currentColor" stroke="currentColor" stroke-width="0"/>
    <path id="Rectangle_1_6¶7314e1e5" data-curvz-iid="7314e1e5-615b-45d6-8f60-4feb2e58d0d5" d="M 50 900 L 50 116.221 L 150 116.221 L 150 900 L 50 900 Z" data-curvz-types="K K K K" data-curvz-name="Rectangle 1 (6)" fill="currentColor" stroke="currentColor" stroke-width="0"/>
    <path id="Rectangle_1_2¶9c95bbfe" data-curvz-iid="9c95bbfe-14eb-491e-aef1-ffb01d247e95" d="M 50 850 L 710.497 850 L 710.497 950 L 50 950 L 50 850 Z" data-curvz-types="K K K K" data-curvz-name="Rectangle 1 (2)" fill="currentColor" stroke="currentColor" stroke-width="0"/>
    <path id="Rectangle_1_3¶c06e04d6" data-curvz-iid="c06e04d6-5138-42dd-9c29-5752c7dd9fd8" d="M 50 650 L 896.561 650 L 896.561 750 L 50 750 L 50 650 Z" data-curvz-types="K K K K" data-curvz-name="Rectangle 1 (3)" fill="currentColor" stroke="currentColor" stroke-width="0"/>
    <path id="Rectangle_1_4¶2e2b02ac" data-curvz-iid="2e2b02ac-9405-489d-86c9-2271e4416d89" d="M 50 450 L 590.329 450 L 590.329 550 L 50 550 L 50 450 Z" data-curvz-types="K K K K" data-curvz-name="Rectangle 1 (4)" fill="currentColor" stroke="currentColor" stroke-width="0"/>
    <path id="Rectangle_1_5¶59f8f65c" data-curvz-iid="59f8f65c-2d4e-4d4c-8aa0-b1154417aac3" d="M 50 250 L 950 250 L 950 350 L 50 350 L 50 250 Z" data-curvz-types="K K K K" data-curvz-name="Rectangle 1 (5)" fill="currentColor" stroke="none" stroke-width="0"/>
  </g>
  <g data-curvz-guide-layer="1" data-curvz-guide-color="0,0.749,1" data-curvz-iid="dd17d659-9f1d-4a6f-8f83-4377629b03ba" data-curvz-name="Guides">
  </g>
</svg>
