<svg xmlns="http://www.w3.org/2000/svg" viewBox="0 0 1000 1000" width="48" height="48">
  <g>
    <g>
      <path d="M 948.916 122.078 L 878.205 192.789 L 807.494 122.078 L 878.205 51.3678 L 948.916 122.078 Z" fill="currentColor" stroke="currentColor" stroke-width="0"/>
      <path d="M 684.14 471.317 C 684.14 545.008 600.833 628.316 527.142 628.316 C 453.452 628.316 370.144 545.008 370.144 471.317 C 370.144 397.627 453.452 314.319 527.142 314.319 C 600.833 314.319 684.14 397.627 684.14 471.317 Z" fill="currentColor" stroke="currentColor" stroke-width="0"/>
      <path d="M 850.807 262.419 C 850.807 299.264 773.798 376.273 736.953 376.273 C 700.108 376.273 623.098 299.264 623.098 262.419 C 623.098 225.574 700.108 148.565 736.953 148.565 C 773.798 148.565 850.807 225.574 850.807 262.419 Z" fill="currentColor" stroke="currentColor" stroke-width="0"/>
      <path d="M 448.916 748.774 C 448.916 859.309 359.309 948.916 248.774 948.916 C 138.239 948.916 48.6322 859.309 48.6322 748.774 C 48.6322 638.239 138.239 548.632 248.774 548.632 C 359.309 548.632 448.916 638.239 448.916 748.774 Z" fill="currentColor" stroke="currentColor" stroke-width="0"/>
    </g>
  </g>
  </svg>
