<svg xmlns="http://www.w3.org/2000/svg" viewBox="0 0 1000 1000" width="48" height="48">
  <g>
    <path fill-rule="evenodd" d="M 650 153.052 C 815.685 153.052 950 309.069 950 501.526 C 950 693.983 815.685 850 650 850 C 484.315 850 350 693.983 350 501.526 C 350 309.069 484.315 153.052 650 153.052 Z M 50 50 L 550 50 L 550 950 L 50 950 L 50 50 Z M 826.776 290.739 C 875.465 350.581 899.188 426.265 900 502.872 C 899.188 579.472 875.42 655.216 826.776 715.004 C 782.071 767.391 719.563 801.809 650 802.872 C 621.7 802.159 594.572 796.676 568.178 786.436 C 562.043 783.723 550 777.909 550 777.909 L 550 777.086 C 550 777.086 550 765 550 758.957 C 550 581.916 550 227.834 550 227.834 C 550 227.834 562.043 222.02 568.178 219.308 C 594.568 209.069 621.697 203.586 650 202.872 C 719.747 203.928 782.091 238.376 826.776 290.739 Z" fill="currentColor" stroke="currentColor" stroke-width="0"/>
  </g>
  </svg>
