<svg xmlns="http://www.w3.org/2000/svg" viewBox="0 0 1000 1000" width="1000" height="1000">
  <g data-curvz-guide-layer="1" data-curvz-guide-color="0,0.749,1">
  </g>
  <g data-curvz-layer="1" id="Layer 1">
    <path id="path1" data-curvz-name="Intersect" d="M 548.237 812.373 C 548.237 817.873 548.237 828.873 548.237 828.873 L 548.237 829.01 C 548.237 829.01 536.309 823.701 530.406 820.881 C 475.11 791.85 431.255 747.411 399.301 694.046 C 366.039 634.019 349.55 567.456 348.443 498.982 C 349.55 430.497 366.041 363.935 399.301 303.918 C 431.257 250.544 475.121 206.109 530.406 177.083 C 536.309 174.263 548.237 168.954 548.237 168.954 C 548.237 168.954 548.237 597.9 548.237 812.373 Z" fill="currentColor" stroke="none" stroke-width="2"/>
    <path id="path2" data-curvz-compound="1" fill-rule="evenodd" d="M 99.4447 99.6627 L 500.555 99.6627 L 500.555 900.337 L 99.4447 900.337 L 99.4447 99.6627 Z M 51.7627 51.0183 L 548.237 51.0183 L 548.237 948.982 L 51.7627 948.982 L 51.7627 51.0183 Z" fill="currentColor" stroke="none" stroke-width="2"/>
    <path id="path3" data-curvz-compound="1" fill-rule="evenodd" d="M 648.34 198.982 C 786.412 198.982 898.34 333.296 898.34 498.982 C 898.34 664.667 786.412 798.982 648.34 798.982 C 510.269 798.982 398.34 664.667 398.34 498.982 C 398.34 333.296 510.269 198.982 648.34 198.982 Z M 648.34 148.982 C 813.969 148.982 948.237 305.682 948.237 498.982 C 948.237 692.281 813.969 848.982 648.34 848.982 C 482.712 848.982 348.443 692.281 348.443 498.982 C 348.443 305.682 482.712 148.982 648.34 148.982 Z" fill="currentColor" stroke="none" stroke-width="2"/>
  </g>
</svg>
