<svg data-curvz-export-units="px" data-curvz-export-size="1000.0000" data-curvz-export-fit="width" xmlns="http://www.w3.org/2000/svg" viewBox="0 0 1000 1000" width="1000" height="1000" data-curvz-intended-w="48" data-curvz-intended-h="48">
  <g data-curvz-layer="1" id="Layer_1¶89663136" data-curvz-iid="89663136-75a7-4a07-b3cb-53abef95a7c6" data-curvz-name="Layer 1">
    <path id="Rectangle_1¶0883eede" data-curvz-iid="0883eede-83ed-442b-9378-e05fecbc8448" d="M 950 50 L 203.8 50 L 203.8 150 L 950 150 L 950 50 Z" data-curvz-types="K K K K" data-curvz-name="Rectangle 1" fill="currentColor" stroke="currentColor" stroke-width="0"/>
    <path id="Rectangle_1_6¶e61606c7" data-curvz-iid="e61606c7-07ad-4e47-bd7c-13a2657c6008" d="M 950 900 L 950 116.221 L 850 116.221 L 850 900 L 950 900 Z" data-curvz-types="K K K K" data-curvz-name="Rectangle 1 (6)" fill="currentColor" stroke="currentColor" stroke-width="0"/>
    <path id="Rectangle_1_2¶701d0b52" data-curvz-iid="701d0b52-e8cf-4e28-a156-0283d4ab9a60" d="M 950 850 L 289.503 850 L 289.503 950 L 950 950 L 950 850 Z" data-curvz-types="K K K K" data-curvz-name="Rectangle 1 (2)" fill="currentColor" stroke="currentColor" stroke-width="0"/>
    <path id="Rectangle_1_3¶d4ca7839" data-curvz-iid="d4ca7839-9dc1-4132-81cb-53c8b5840143" d="M 950 650 L 103.439 650 L 103.439 750 L 950 750 L 950 650 Z" data-curvz-types="K K K K" data-curvz-name="Rectangle 1 (3)" fill="currentColor" stroke="currentColor" stroke-width="0"/>
    <path id="Rectangle_1_4¶b2c7c9cb" data-curvz-iid="b2c7c9cb-9463-4b1e-ae72-12a95970bc41" d="M 950 450 L 409.671 450 L 409.671 550 L 950 550 L 950 450 Z" data-curvz-types="K K K K" data-curvz-name="Rectangle 1 (4)" fill="currentColor" stroke="currentColor" stroke-width="0"/>
    <path id="Rectangle_1_5¶b4705c7b" data-curvz-iid="b4705c7b-6ba3-44a4-86ca-649edbb711c5" d="M 950 250 L 50 250 L 50 350 L 950 350 L 950 250 Z" data-curvz-types="K K K K" data-curvz-name="Rectangle 1 (5)" fill="currentColor" stroke="none" stroke-width="0"/>
  </g>
  <g data-curvz-guide-layer="1" data-curvz-guide-color="0,0.749,1" data-curvz-iid="59e6c7f0-c529-4453-82d4-47182884c018" data-curvz-name="Guides">
  </g>
</svg>
