<svg xmlns="http://www.w3.org/2000/svg" viewBox="0 0 1000 1000" width="1000" height="1000">
  <g data-curvz-layer="1" id="Layer 1">
    <path id="compound1_0" data-curvz-iid="9e93ba83-2676-4eba-bcad-7d738c74142a" d="M 752.133 704.38 L 550.42 704.346 C 439.029 704.38 348.706 614.057 348.741 502.667 C 348.706 485.152 351.701 468.438 355.844 452.246 L 449.581 452.246 C 454.056 452.228 458.095 453.691 462.238 454.805 C 454.403 469.117 449.58 485.256 449.581 502.666 C 449.563 558.291 494.848 603.506 550.421 603.505 L 752.099 603.505 C 807.743 603.505 852.975 558.273 852.957 502.648 C 852.973 447.057 807.743 401.826 752.117 401.809 L 680.352 401.843 C 662.594 361.417 634.285 327.015 599.29 300.968 L 752.116 300.968 C 863.523 300.986 953.812 391.274 953.83 502.681 C 953.812 614.057 863.505 704.363 752.133 704.38 Z" data-curvz-types="M K M M K M M M K M M K M K M" fill="currentColor" stroke="none" stroke-width="0"/>
    <path id="compound1_1" data-curvz-iid="c1d4bb04-352c-482f-91b2-7be576bd798a" d="M 319.648 603.524 L 247.866 603.542 C 192.275 603.525 147.025 558.276 147.009 502.685 C 147.026 447.059 192.258 401.827 247.882 401.811 L 449.579 401.829 C 505.222 401.829 550.436 447.043 550.418 502.668 C 550.418 520.044 545.596 536.182 537.814 550.512 C 541.993 551.626 545.963 553.089 550.42 553.089 L 644.139 553.107 C 648.352 536.915 651.277 520.201 651.259 502.669 C 651.276 391.297 560.953 300.974 449.562 300.972 L 247.884 300.972 C 136.477 300.99 46.1881 391.279 46.1703 502.686 C 46.187 614.058 136.493 704.365 247.867 704.382 L 400.728 704.382 C 365.699 678.336 337.407 643.916 319.648 603.524 Z" data-curvz-types="M K M M K M M M K M M K M M K" fill="currentColor" stroke="none" stroke-width="0"/>
  </g>
  <g data-curvz-guide-layer="1" data-curvz-guide-color="0,0.749,1">
  </g>
  <g data-curvz-layer="1" id="Layer 1">
  </g>
</svg>
