<svg xmlns="http://www.w3.org/2000/svg" viewBox="0 0 1000 1000" width="1000" height="1000">
  <g data-curvz-layer="1" id="Layer_1¶75ef1591" data-curvz-iid="75ef1591-4fcf-460a-ac6b-f32dfd5adfa2" data-curvz-name="Layer 1">
    <path data-curvz-compound="1" id="Compound_1¶4e988316" data-curvz-iid="4e988316-3c3d-4c5d-ac91-cdeef9c652a9" data-curvz-name="Compound 1" fill-rule="evenodd" d="M 597.691 147.69 C 596.761 184.782 576.187 218.432 542.99 235.42 C 542.99 253.278 542.99 271.135 542.99 288.993 C 590.433 288.993 637.878 288.993 685.321 288.993 C 685.321 309.588 685.321 330.183 685.321 350.778 C 637.878 350.778 590.433 350.778 542.99 350.778 C 542.99 421.971 542.99 493.164 542.99 564.358 C 541.559 614.462 530.586 711.862 580.78 743.989 C 647.045 779.365 723.632 715.369 757.586 664.808 C 757.317 664.614 757.048 664.42 756.78 664.227 C 744.417 658.712 730.634 656.507 717.345 654.567 C 756.461 614.692 805.038 575.699 831.085 525.371 C 863.547 580.856 864.38 666.358 836.164 722.698 C 828.861 711.297 821.093 700.231 813.658 688.917 C 792.394 725.834 770.798 762.395 740.062 792.303 C 669.508 854.177 550.388 864.739 499.999 948.933 C 450.272 865.768 327.87 851.878 259.938 792.303 C 229.177 762.37 207.616 725.851 186.342 688.917 C 178.908 700.229 171.139 711.297 163.835 722.698 C 135.475 666.069 136.893 580.104 168.915 525.371 C 195.083 576.004 243.582 614.735 282.655 654.567 C 270.529 656.337 252.647 657.428 242.414 664.808 C 276.378 715.384 356.434 784.12 421.438 742.57 C 467.069 705.685 458.786 614.391 456.991 564.426 C 456.991 493.21 456.991 421.994 456.991 350.778 C 409.554 350.778 362.116 350.778 314.679 350.778 C 314.679 330.183 314.679 309.588 314.679 288.993 C 362.116 288.993 409.554 288.993 456.991 288.993 C 456.991 271.132 456.991 253.271 456.991 235.411 C 423.788 218.418 403.24 184.813 402.309 147.69 C 403.652 94.1415 446.345 51.3542 500 50 C 553.541 51.3521 596.345 94.026 597.691 147.69 Z M 500 95.8657 C 528.623 95.8657 551.825 119.068 551.825 147.69 C 551.825 176.312 528.623 199.515 500 199.515 C 471.379 199.515 448.175 176.312 448.175 147.69 C 448.175 119.068 471.379 95.8657 500 95.8657 Z" data-curvz-types="K K K K K K K K K K K K K K K K K K K K K K K K K K K K K K K|M M M M" data-curvz-child-ids="cdd4b500,b81da6e9" fill="currentColor" stroke="none" stroke-width="0"/>
  </g>
  <g data-curvz-ref-layer="1" data-curvz-color="#D91ABF">
  </g>
  <g data-curvz-guide-layer="1" data-curvz-guide-color="0,0.749,1">
  </g>
</svg>
