<svg data-curvz-export-units="px" data-curvz-export-size="1000.0000" data-curvz-export-fit="width" xmlns="http://www.w3.org/2000/svg" viewBox="0 0 1000 1000" width="1000" height="1000" data-curvz-intended-w="48" data-curvz-intended-h="48">
  <g data-curvz-layer="1" id="Layer_1¶b8283d6c" data-curvz-iid="b8283d6c-e7ae-45f5-bf29-fcb31dc98a30" data-curvz-name="Layer 1">
    <path id="Rectangle_1¶16188cdd" data-curvz-iid="16188cdd-452a-49ca-9389-a3e2a1a8ea38" d="M 873.1 50 L 126.9 50 L 126.9 150 L 873.1 150 L 873.1 50 Z" data-curvz-types="K K K K" data-curvz-name="Rectangle 1" fill="currentColor" stroke="currentColor" stroke-width="0"/>
    <path id="Rectangle_1_6¶993aa035" data-curvz-iid="993aa035-c08d-4e32-820d-513d9b6043a2" d="M 550 900 L 550 116.221 L 450 116.221 L 450 900 L 550 900 Z" data-curvz-types="K K K K" data-curvz-name="Rectangle 1 (6)" fill="currentColor" stroke="currentColor" stroke-width="0"/>
    <path id="Rectangle_1_2¶8e23fb9a" data-curvz-iid="8e23fb9a-7a62-4838-b9e4-928b9dd9c9f3" d="M 830.248 850 L 169.751 850 L 169.751 950 L 830.248 950 L 830.248 850 Z" data-curvz-types="K K K K" data-curvz-name="Rectangle 1 (2)" fill="currentColor" stroke="currentColor" stroke-width="0"/>
    <path id="Rectangle_1_3¶1fcf6db6" data-curvz-iid="1fcf6db6-1eb6-4159-8160-81db8225dab7" d="M 923.28 650 L 76.7195 650 L 76.7195 750 L 923.28 750 L 923.28 650 Z" data-curvz-types="K K K K" data-curvz-name="Rectangle 1 (3)" fill="currentColor" stroke="currentColor" stroke-width="0"/>
    <path id="Rectangle_1_4¶5e570278" data-curvz-iid="5e570278-e5d8-46a2-8e10-c6dee87e0000" d="M 770.165 450 L 229.836 450 L 229.836 550 L 770.165 550 L 770.165 450 Z" data-curvz-types="K K K K" data-curvz-name="Rectangle 1 (4)" fill="currentColor" stroke="currentColor" stroke-width="0"/>
    <path id="Rectangle_1_5¶b6540a95" data-curvz-iid="b6540a95-e33e-4199-afbb-e57217b4fbf5" d="M 950 250 L 50 250 L 50 350 L 950 350 L 950 250 Z" data-curvz-types="K K K K" data-curvz-name="Rectangle 1 (5)" fill="currentColor" stroke="none" stroke-width="0"/>
  </g>
  <g data-curvz-guide-layer="1" data-curvz-guide-color="0,0.749,1" data-curvz-iid="09e949d6-536a-4443-96c8-9d09f490d210" data-curvz-name="Guides">
  </g>
</svg>
