<svg xmlns="http://www.w3.org/2000/svg" viewBox="0 0 1000 1000">
  <path fill="currentColor" fill-rule="evenodd" d="M 50 450 C 50 339.543 139.543 250 250 250 L 745 250 C 855.457 250 945 339.543 945 450 L 945 550 C 945 660.457 855.457 750 745 750 L 250 750 C 139.543 750 50 660.457 50 550 L 50 450 Z M 471.017 353.966 C 471.017 353.966 471.017 365.342 471.017 371.03 C 471.017 464.02 471.017 650 471.017 650 C 471.017 650 450.442 650 440.154 650 C 377.185 650 314.215 650 251.245 650 C 224.561 649.327 199.861 639.135 180.534 620.711 C 162.105 601.38 151.918 576.676 151.245 550 C 151.245 517.767 151.245 485.535 151.245 453.302 C 151.919 426.617 162.109 401.918 180.534 382.591 C 199.865 364.163 224.569 353.975 251.245 353.302 C 314.215 353.302 377.185 353.302 440.154 353.302 C 450.442 353.302 471.017 353.302 471.017 353.302 L 471.017 353.966 Z"/>
</svg>
