<svg xmlns="http://www.w3.org/2000/svg" viewBox="0 0 1000 1000" width="1000" height="1000">
  <g data-curvz-guide-layer="1" data-curvz-guide-color="0,0.749,1">
  </g>
  <g data-curvz-layer="1" id="Layer 1">
    <path data-curvz-compound="1" id="compound3" data-curvz-name="Compound 3" fill-rule="evenodd" d="M 127.992 832.266 C 151.81 832.266 171.117 851.574 171.117 875.391 C 171.117 899.209 151.81 918.516 127.992 918.516 C 104.175 918.516 84.8672 899.209 84.8672 875.391 C 84.8672 851.574 104.175 832.266 127.992 832.266 Z M 127.992 774.766 C 130.831 774.766 133.642 774.884 137.732 773.803 L 774.406 137.129 C 774.239 133.956 774.096 130.856 774.096 127.723 C 774.096 72.1489 819.147 27.0974 874.721 27.0974 C 930.295 27.0974 975.346 72.1489 975.346 127.723 C 975.346 183.297 930.295 228.348 874.721 228.348 C 870.034 228.348 865.421 228.028 858.831 229.481 L 240.132 848.18 C 228.257 865.53 228.618 870.419 228.618 875.391 C 228.618 930.965 183.566 976.017 127.992 976.017 C 72.4185 976.017 27.3671 930.965 27.3671 875.391 C 27.3671 819.817 72.4185 774.766 127.992 774.766 Z M 874.721 84.5976 C 898.538 84.5976 917.846 103.905 917.846 127.723 C 917.846 151.54 898.538 170.848 874.721 170.848 C 850.904 170.848 831.596 151.54 831.596 127.723 C 831.596 103.905 850.904 84.5976 874.721 84.5976 Z" data-curvz-types="M M M M|K K K K K K K K K K K K|M M M M" data-curvz-child-ids="obj61,obj64,obj44" fill="currentColor" stroke="none" stroke-width="2"/>
  </g>
</svg>
