<svg data-curvz-export-units="px" data-curvz-export-size="1000.0000" data-curvz-export-fit="width" xmlns="http://www.w3.org/2000/svg" viewBox="0 0 1000 1000" width="1000" height="1000" data-curvz-intended-w="48" data-curvz-intended-h="48">
  <g data-curvz-layer="1" id="Layer_1¶e4f9b958" data-curvz-iid="e4f9b958-b2b8-4795-b5c3-b334c43e79d7" data-curvz-name="Layer 1">
    <path data-curvz-compound="1" id="Compound_1¶aa1be010" data-curvz-iid="aa1be010-0a26-4a6f-a41f-303fc09acbd0" data-curvz-name="Compound 1" fill-rule="evenodd" d="M 201.395 667.492 L 161.657 667.501 C 130.882 667.492 105.832 642.443 105.824 611.668 C 105.833 580.874 130.873 555.834 161.666 555.825 L 273.324 555.835 C 304.127 555.835 329.158 580.865 329.148 611.658 C 329.148 621.278 326.478 630.212 322.17 638.144 C 324.484 638.761 326.681 639.571 329.149 639.571 L 381.031 639.581 C 383.363 630.617 384.982 621.365 384.972 611.659 C 384.982 550.004 334.98 500.002 273.314 500.001 L 161.667 500.001 C 99.9931 500.011 50.0099 549.994 50 611.668 C 50.0092 673.323 100.002 723.316 161.658 723.326 L 246.28 723.326 C 226.889 708.907 211.226 689.852 201.395 667.492 Z M 440.801 723.326 L 329.134 723.307 C 267.469 723.326 217.467 673.324 217.486 611.659 C 217.467 601.963 219.125 592.71 221.418 583.746 L 273.31 583.746 C 275.788 583.736 278.024 584.546 280.317 585.163 C 275.98 593.086 273.31 602.02 273.31 611.658 C 273.3 642.452 298.37 667.483 329.135 667.482 L 440.782 667.482 C 471.586 667.482 496.626 642.442 496.616 611.648 C 496.625 580.874 471.586 555.834 440.792 555.825 L 401.063 555.844 C 391.233 533.464 375.561 514.419 356.188 500 L 440.791 500 C 502.465 500.01 552.449 549.993 552.459 611.667 C 552.449 673.324 502.455 723.316 440.801 723.326 Z M 350 450.502 C 350 358.778 350 241.725 350 150 C 419.126 150 488.253 150 557.379 150 C 557.287 244.078 557.196 338.156 557.104 432.234 C 654.736 433.093 752.368 433.952 850 434.811 C 850 573.207 850 711.604 850 850 C 683.333 850 516.667 850 350 850 C 350 833.95 350 800.17 350 784.119 C 350 782.786 350 780.119 350 780.119 C 322.489 780.025 308.504 779.986 250 779.798 C 250 830.622 250 899.176 250 950 C 483.333 950 716.667 950 950 950 C 950 733.333 950 516.667 950 300 C 866.667 216.667 783.333 133.333 700 50 C 550 50 400 50 250 50 C 250 175.11 250 325.548 250 450.658 C 296.447 450.633 350 450.502 350 450.502 Z M 849.794 341.216 C 786.075 341.216 722.355 341.216 658.636 341.216 C 658.636 277.496 658.636 213.777 658.636 150.058 C 722.355 213.777 786.075 277.496 849.794 341.216 Z" data-curvz-types="M K M M K M M M K M M K M M K|M K M M K M M M K M M K M K M|K K K K K K K M K K K K K K K M|K K K" data-curvz-child-ids="_2¶33a841a1,_2_2¶a5b50f4e,Offset_Inside¶9146fd6e,Offset_Inside_2¶59034b55" fill="currentColor" stroke="none" stroke-width="0"/>
  </g>
  <g data-curvz-guide-layer="1" data-curvz-guide-color="0,0.749,1" data-curvz-iid="79b27540-ea7f-40bd-ac51-85886343f16d" data-curvz-name="Guides">
  </g>
</svg>
