<svg xmlns="http://www.w3.org/2000/svg" viewBox="0 0 1000 1000">
  <path fill="currentColor" fill-rule="evenodd" d="M 947.5 550 C 947.5 660.457 857.957 750 747.5 750 L 252.5 750 C 142.043 750 52.5 660.457 52.5 550 L 52.5 450 C 52.5 339.543 142.043 250 252.5 250 L 747.5 250 C 857.957 250 947.5 339.543 947.5 450 L 947.5 550 Z M 526.483 646.034 C 526.483 646.034 526.483 634.658 526.483 628.97 C 526.483 535.98 526.483 350 526.483 350 C 526.483 350 547.058 350 557.346 350 C 620.315 350 683.285 350 746.255 350 C 772.939 350.673 797.639 360.865 816.966 379.289 C 835.395 398.62 845.582 423.324 846.255 450 C 846.255 482.233 846.255 514.465 846.255 546.698 C 845.581 573.383 835.391 598.082 816.966 617.409 C 797.635 635.837 772.931 646.025 746.255 646.698 C 683.285 646.698 620.315 646.698 557.346 646.698 C 547.058 646.698 526.483 646.698 526.483 646.698 L 526.483 646.034 Z"/>
</svg>
