<svg xmlns="http://www.w3.org/2000/svg" viewBox="0 0 1000 1000" width="1000" height="1000">
  <g data-curvz-guide-layer="1" data-curvz-guide-color="0,0.749,1">
  </g>
  <g data-curvz-layer="1" id="Layer 1">
    <path data-curvz-compound="1" id="compound2" data-curvz-name="Compound 2" fill-rule="evenodd" d="M 143.027 108.312 C 166.844 108.312 186.152 127.62 186.152 151.437 C 186.152 175.255 166.844 194.562 143.027 194.562 C 119.21 194.562 99.9019 175.255 99.9019 151.437 C 99.9019 127.62 119.21 108.312 143.027 108.312 Z M 229.858 203 L 755.187 203 C 765.222 219.515 779.696 232.964 797 241.804 L 797 759.813 C 780.267 768.376 766.18 781.227 756.144 797 L 228.817 797 C 221.772 786.274 213.116 776.899 203 769.049 L 203 232.585 C 213.624 224.348 222.636 214.405 229.858 203 Z M 841.776 807.062 C 865.594 807.062 884.902 826.369 884.902 850.187 C 884.902 874.004 865.594 893.312 841.776 893.312 C 817.959 893.312 798.651 874.004 798.651 850.187 C 798.651 826.369 817.959 807.062 841.776 807.062 Z M 143.027 807.062 C 166.844 807.062 186.152 826.369 186.152 850.187 C 186.152 874.004 166.844 893.312 143.027 893.312 C 119.21 893.312 99.9019 874.004 99.9019 850.187 C 99.9019 826.369 119.21 807.062 143.027 807.062 Z M 841.776 108.312 C 865.594 108.312 884.902 127.62 884.902 151.437 C 884.902 175.255 865.594 194.562 841.776 194.562 C 817.959 194.562 798.651 175.255 798.651 151.437 C 798.651 127.62 817.959 108.312 841.776 108.312 Z M 841.776 50.8121 C 897.35 50.8121 942.402 95.8635 942.402 151.437 C 942.402 174.256 934.806 195.301 922.006 212.292 L 922.005 789.442 C 934.806 806.322 942.402 827.367 942.402 850.187 C 942.402 905.761 897.35 950.812 841.776 950.812 C 814.33 950.812 789.45 939.823 771.151 922.006 L 213.537 922.006 C 195.354 939.823 170.474 950.812 143.027 950.812 C 87.4532 950.812 42.4017 905.761 42.4017 850.187 C 42.4017 819.407 56.2214 791.855 77.9944 773.277 L 77.9944 228.355 C 56.2214 209.769 42.4017 182.217 42.4017 151.437 C 42.4017 95.8635 87.4532 50.8121 143.027 50.8121 C 169.63 50.8121 193.821 61.1354 211.866 77.9945 L 771.914 77.9945 C 790.982 61.1354 815.174 50.8121 841.776 50.8121 Z" data-curvz-types="M M M M|K K K K K K K K|M M M M|M M M M|M M M M|K K K K K K K K K K K K K K K K" data-curvz-child-ids="obj18,obj59,obj36,obj42,obj33,obj55" fill="currentColor" stroke="none" stroke-width="2"/>
  </g>
</svg>
