<svg xmlns="http://www.w3.org/2000/svg" viewBox="0 0 1000 1000" width="1000" height="1000">
  <g data-curvz-layer="1" id="Layer 1">
    <path data-curvz-compound="1" id="compound1" data-curvz-name="Compound 1" fill-rule="evenodd" d="M 763.508 667.917 L 940.675 845.083 C 965.083 869.491 965.083 909.064 940.675 933.472 L 933.604 940.543 C 909.196 964.951 869.624 964.951 845.216 940.543 L 668.414 763.741 C 603.608 809.398 524.669 836.402 439.423 836.402 C 221.271 836.402 44.4234 659.555 44.4234 441.402 C 44.4234 223.25 221.271 46.4021 439.423 46.4021 C 657.576 46.4021 834.423 223.25 834.423 441.402 C 834.423 525.561 808.104 603.573 763.508 667.917 Z M 439.423 146.402 C 602.347 146.402 734.423 278.478 734.423 441.402 C 734.423 604.326 602.347 736.402 439.423 736.402 C 276.499 736.402 144.423 604.326 144.423 441.402 C 144.423 278.478 276.499 146.402 439.423 146.402 Z" data-curvz-types="K K K K K K K K K K|M M M M" data-curvz-child-ids="obj4,obj2" fill="currentColor" stroke="currentColor" stroke-width="2"/>
  </g>
  <g data-curvz-guide-layer="1" data-curvz-guide-color="0,0.749,1">
  </g>
</svg>
