<svg xmlns="http://www.w3.org/2000/svg" viewBox="0 0 1000 1000" width="1000" height="1000">
  <g data-curvz-layer="1" id="Layer 1">
    <path data-curvz-compound="1" id="compound1" data-curvz-name="Compound 1" fill-rule="evenodd" d="M 840.871 32.0684 C 808.4 33.045 777.394 46.7168 754.933 69.9102 L 655.812 169.031 L 587.941 101.16 C 581.837 95.3008 573.781 91.8828 565.236 91.8828 C 557.179 92.127 549.367 95.3008 543.751 101.16 L 411.183 233.729 C 398.976 245.936 398.976 265.711 411.183 277.918 L 451.466 318.445 L 102.345 667.322 C 96.4858 673.426 93.312 681.238 93.312 689.539 L 93.312 801.6 L 39.8451 854.822 C 27.6381 867.029 27.6381 887.049 39.8451 899.256 L 102.345 961.756 C 114.552 973.719 134.328 973.719 146.535 961.756 L 200.001 908.289 L 312.062 908.289 C 320.363 908.289 328.175 905.115 334.035 899.256 L 683.156 550.135 L 723.683 590.418 C 735.89 602.625 755.665 602.625 767.872 590.418 L 900.441 457.85 C 912.648 445.643 912.648 425.867 900.441 413.66 L 832.57 345.789 L 931.691 246.668 C 1013.23 167.078 954.64 28.6504 840.871 32.0684 Z M 535.854 390.656 L 616.665 471.467 L 327.306 770.635 L 165.685 770.635 L 535.854 390.656 Z" data-curvz-types="M M K K M M K M K K M K K M K M K K M K K M K M K K|M K K K" data-curvz-child-ids="compound1_0,compound1_1" fill="currentColor" stroke="none" stroke-width="2"/>
  </g>
  <g data-curvz-guide-layer="1" data-curvz-guide-color="0,0.749,1">
  </g>
</svg>
