<svg xmlns="http://www.w3.org/2000/svg" viewBox="0 0 16 16">
  <g fill="currentColor" fill-rule="evenodd"
     transform="matrix(1.2910278,0,0,1.3837239,-0.53795926,-1.3837239)">
    <path d="M 2.911,3.582 v 8.981 L 5.5983943,10.029823 9.037,9.748 Z
             M 2.6,2.143 A 0.457,0.457 0 0 1 2.143,2.6 0.457,0.457 0 0 1 1.686,2.143
             0.457,0.457 0 0 1 2.143,1.686 0.457,0.457 0 0 1 2.6,2.143 Z
             m 0.686,0 A 1.143,1.143 0 0 1 2.143,3.286 1.143,1.143 0 0 1 1,2.143
             1.143,1.143 0 0 1 2.143,1 1.143,1.143 0 0 1 3.286,2.143 Z"/>
  </g>
</svg>
