<svg data-curvz-export-units="px" data-curvz-export-size="1000.0000" data-curvz-export-fit="width" xmlns="http://www.w3.org/2000/svg" viewBox="0 0 1000 1000" width="1000" height="1000">
  <g data-curvz-layer="1" id="Layer_1¶8492f6b9" data-curvz-iid="8492f6b9-052c-4d5c-8e49-bd442466505b" data-curvz-name="Layer 1">
    <path id="Rectangle_1¶3706fbba" data-curvz-iid="3706fbba-7214-4192-ba1e-e71596b016f7" d="M 150 166.965 L 850 166.965 L 850 316.965 L 150 316.965 L 150 166.965 Z" data-curvz-types="K K K K" data-curvz-name="Rectangle 1" fill="currentColor" stroke="currentColor" stroke-width="0"/>
    <path id="Rectangle_1_2¶4c5eeb77" data-curvz-iid="4c5eeb77-2332-4e50-a548-93dfafd1d26e" d="M 750 841.469 L 250 841.469 L 250 691.469 L 750 691.469 L 750 841.469 Z" data-curvz-types="K K K K" data-curvz-name="Rectangle 1 (2)" fill="currentColor" stroke="currentColor" stroke-width="0"/>
    <path id="Rectangle_1_3¶7dd324e8" data-curvz-iid="7dd324e8-9a3a-4294-91b3-5c06912c8f15" d="M 651.433 579.217 L 351.433 579.217 L 351.433 429.217 L 651.433 429.217 L 651.433 579.217 Z" data-curvz-types="K K K K" data-curvz-name="Rectangle 1 (3)" fill="currentColor" stroke="currentColor" stroke-width="0"/>
    <path id="Rectangle_2¶e78f13cd" data-curvz-iid="e78f13cd-f5c5-4d7b-8017-e51a26b1370b" d="M 462.5 28.3395 L 537.5 28.3395 L 537.5 128.339 L 462.5 128.339 L 462.5 28.3395 Z" data-curvz-types="K K K K" data-curvz-name="Rectangle 2" fill="currentColor" stroke="currentColor" stroke-width="0"/>
    <path id="Rectangle_2_12¶e78f13cd" data-curvz-iid="e78f13cd-f5c5-4d7b-8017-e51a26b1370b" d="M 871.341 541.717 L 871.341 466.717 L 971.34 466.717 L 971.34 541.717 L 871.341 541.717 Z" data-curvz-types="K K K K" data-curvz-name="Rectangle 2 (12)" fill="currentColor" stroke="currentColor" stroke-width="0"/>
    <path id="Rectangle_2_6¶e78f13cd" data-curvz-iid="e78f13cd-f5c5-4d7b-8017-e51a26b1370b" d="M 711.387 541.717 L 711.387 466.717 L 811.387 466.717 L 811.387 541.717 L 711.387 541.717 Z" data-curvz-types="K K K K" data-curvz-name="Rectangle 2 (6)" fill="currentColor" stroke="currentColor" stroke-width="0"/>
    <path id="Rectangle_2_11¶e78f13cd" data-curvz-iid="e78f13cd-f5c5-4d7b-8017-e51a26b1370b" d="M 131.525 466.717 L 131.525 541.717 L 31.5256 541.717 L 31.5256 466.717 L 131.525 466.717 Z" data-curvz-types="K K K K" data-curvz-name="Rectangle 2 (11)" fill="currentColor" stroke="currentColor" stroke-width="0"/>
    <path id="Rectangle_2_5¶e78f13cd" data-curvz-iid="e78f13cd-f5c5-4d7b-8017-e51a26b1370b" d="M 291.479 466.717 L 291.479 541.717 L 191.479 541.717 L 191.479 466.717 L 291.479 466.717 Z" data-curvz-types="K K K K" data-curvz-name="Rectangle 2 (5)" fill="currentColor" stroke="currentColor" stroke-width="0"/>
    <path id="Rectangle_2_3¶1a8caaee" data-curvz-iid="1a8caaee-f624-4a24-84ec-fdca21055835" d="M 462.5 355.591 L 537.5 355.591 L 537.5 390.591 L 462.5 390.591 L 462.5 355.591 Z" data-curvz-types="K K K K" data-curvz-name="Rectangle 2 (3)" fill="currentColor" stroke="currentColor" stroke-width="0"/>
    <path id="Rectangle_2_4¶2b01586b" data-curvz-iid="2b01586b-c6bb-4196-986e-97aa5fbdc673" d="M 462.5 617.843 L 537.5 617.843 L 537.5 652.843 L 462.5 652.843 L 462.5 617.843 Z" data-curvz-types="K K K K" data-curvz-name="Rectangle 2 (4)" fill="currentColor" stroke="currentColor" stroke-width="0"/>
    <path id="Rectangle_2_2¶f46f1967" data-curvz-iid="f46f1967-e46e-4b62-8bd3-6bd7144b705d" d="M 462.5 880.095 L 537.5 880.095 L 537.5 980.095 L 462.5 980.095 L 462.5 880.095 Z" data-curvz-types="K K K K" data-curvz-name="Rectangle 2 (2)" fill="currentColor" stroke="currentColor" stroke-width="0"/>
  </g>
  <g data-curvz-guide-layer="1" data-curvz-guide-color="0,0.749,1" data-curvz-iid="decd8a05-d718-4dcc-97ef-e6b8bd7f4641" data-curvz-name="Guides">
  </g>
</svg>
