<svg xmlns="http://www.w3.org/2000/svg" viewBox="0 0 1000 1000" width="1000" height="1000">
  <g data-curvz-guide-layer="1" data-curvz-guide-color="0,0.749,1">
  </g>
  <g data-curvz-layer="1" id="Layer 1">
    <path data-curvz-compound="1" id="compound4" data-curvz-name="Compound 4" fill-rule="evenodd" d="M 803.946 578.101 C 802.664 583.686 802.026 586.924 799.147 596.02 C 794.876 609.513 794.1 611.531 788.455 624.771 C 782.809 638.011 781.868 639.98 775.2 652.227 C 768.532 664.474 767.811 665.656 760.061 677.034 C 752.311 688.412 751.426 689.568 742.533 700.202 C 733.641 710.835 732.021 712.572 721.926 722.585 C 711.832 732.599 710.063 734.221 699.341 743.043 C 688.618 751.866 687.38 752.797 675.906 760.487 C 664.432 768.177 663.114 768.967 650.765 775.583 C 638.416 782.199 636.267 783.21 622.92 788.81 C 609.572 794.41 607.332 795.254 593.721 799.492 C 583.457 802.689 580.084 803.701 573.023 805.228 C 554.781 786.767 529.449 775.327 501.444 775.327 C 473.44 775.327 448.108 786.767 429.866 805.228 C 422.805 803.701 419.432 802.689 409.168 799.492 C 395.557 795.254 393.317 794.41 379.969 788.81 C 366.622 783.21 364.473 782.199 352.124 775.583 C 339.775 768.967 338.457 768.177 326.983 760.487 C 315.509 752.797 314.271 751.866 303.548 743.043 C 292.826 734.221 291.057 732.599 280.963 722.585 C 270.868 712.572 269.248 710.835 260.356 700.202 C 251.463 689.568 250.578 688.412 242.828 677.034 C 235.078 665.656 234.357 664.474 227.689 652.227 C 221.021 639.98 220.08 638.011 214.434 624.771 C 208.789 611.531 208.013 609.513 203.742 596.02 C 200.955 587.216 199.846 583.643 198.62 578.381 C 217.94 560.069 229.983 534.148 229.983 505.414 C 229.983 476.681 217.94 450.76 198.621 432.445 C 199.847 427.183 200.956 423.61 203.742 414.809 C 208.013 401.315 208.789 399.298 214.434 386.058 C 220.08 372.818 221.021 370.849 227.689 358.602 C 234.357 346.355 235.078 345.172 242.828 333.794 C 250.578 322.416 251.463 321.26 260.356 310.627 C 269.248 299.993 270.868 298.257 280.963 288.243 C 291.057 278.23 292.826 276.608 303.548 267.785 C 314.271 258.963 315.509 258.032 326.983 250.342 C 338.457 242.652 339.775 241.861 352.124 235.246 C 364.473 228.63 366.622 227.618 379.969 222.018 C 393.317 216.418 395.557 215.574 409.168 211.336 C 419.432 208.14 422.805 207.128 429.866 205.6 C 448.108 224.061 473.44 235.501 501.444 235.501 C 529.449 235.501 554.781 224.061 573.023 205.6 C 580.084 207.128 583.457 208.14 593.721 211.336 C 607.332 215.574 609.572 216.418 622.92 222.018 C 636.267 227.618 638.416 228.63 650.765 235.246 C 663.114 241.861 664.432 242.652 675.906 250.342 C 687.38 258.032 688.618 258.963 699.341 267.785 C 710.063 276.608 711.832 278.23 721.926 288.243 C 732.021 298.257 733.641 299.993 742.533 310.627 C 751.426 321.26 752.311 322.416 760.061 333.794 C 767.811 345.172 768.532 346.355 775.2 358.602 C 781.868 370.849 782.809 372.818 788.455 386.058 C 794.1 399.298 794.876 401.315 799.147 414.809 C 801.869 423.409 802.99 427.017 804.189 432.106 C 792.254 444.68 773.204 466.135 773.137 501.785 C 773.069 537.732 789.041 562.774 803.946 578.101 Z M 586.265 80.7152 C 615.489 86.4125 643.579 95.1298 671.281 106.752 C 724.671 129.153 769.578 159.445 809.957 199.499 C 850.336 239.552 880.856 284.069 903.438 337.029 C 915.245 364.72 924.074 392.779 929.81 421.986 C 956.566 440.07 974.157 470.688 974.157 505.414 C 974.157 540.141 956.566 570.758 929.81 588.842 C 924.074 618.05 915.245 646.108 903.438 673.799 C 880.856 726.76 850.336 771.276 809.957 811.33 C 769.578 851.384 724.671 881.676 671.281 904.076 C 643.579 915.699 615.489 924.416 586.265 930.113 C 568.387 958.055 537.079 976.578 501.444 976.578 C 465.81 976.578 434.502 958.055 416.624 930.113 C 387.4 924.416 359.31 915.699 331.608 904.076 C 278.218 881.676 233.311 851.384 192.932 811.33 C 152.553 771.276 122.033 726.76 99.4508 673.799 C 87.6435 646.108 78.815 618.05 73.0792 588.842 C 46.3232 570.758 28.7324 540.141 28.7324 505.414 C 28.7324 470.688 46.3232 440.07 73.0792 421.986 C 78.815 392.779 87.6435 364.72 99.4508 337.029 C 122.033 284.069 152.553 239.552 192.932 199.499 C 233.311 159.445 278.218 129.153 331.608 106.752 C 359.31 95.1298 387.4 86.4125 416.624 80.7152 C 434.502 52.7732 465.81 34.2505 501.444 34.2505 C 537.079 34.2505 568.387 52.7732 586.265 80.7152 Z M 873.531 462.289 C 897.349 462.289 916.656 481.597 916.656 505.414 C 916.656 529.232 897.349 548.539 873.531 548.539 C 849.714 548.539 830.406 529.232 830.406 505.414 C 830.406 481.597 849.714 462.289 873.531 462.289 Z M 129.358 462.289 C 153.175 462.289 172.483 481.597 172.483 505.414 C 172.483 529.232 153.175 548.539 129.358 548.539 C 105.54 548.539 86.2325 529.232 86.2325 505.414 C 86.2325 481.597 105.54 462.289 129.358 462.289 Z M 501.444 91.7507 C 525.262 91.7507 544.57 111.058 544.57 134.876 C 544.57 158.693 525.262 178.001 501.444 178.001 C 477.627 178.001 458.319 158.693 458.319 134.876 C 458.319 111.058 477.627 91.7507 501.444 91.7507 Z M 501.444 832.828 C 525.262 832.828 544.57 852.135 544.57 875.953 C 544.57 899.77 525.262 919.078 501.444 919.078 C 477.627 919.078 458.319 899.77 458.319 875.953 C 458.319 852.135 477.627 832.828 501.444 832.828 Z" data-curvz-types="K K K K K K K K K K K K K K K K K K K K K K K K K K K K K K K K K K K K K K K K K K K K K K K K K K K K K K K K|K K K K K K K K K K K K K K K K K K K K K K K K|M M M M|M M M M|M M M M|M M M M" data-curvz-child-ids="obj97,obj88,obj80,obj76,obj65,obj73" fill="currentColor" stroke="currentColor" stroke-width="2"/>
  </g>
</svg>
