<?xml version="1.0" encoding="UTF-8"?>
<!--
  Curvz user manual — outline chart, v1 (locked s114).
  8 chapters, 30 sections, 41 leaf topics.
  Source of truth for the chapter list itself is HANDOFF.md; this SVG is an
  aerial-view archive captured at lock date so the structure can be
  re-grasped at a glance during drafting.
-->
<svg xmlns="http://www.w3.org/2000/svg" width="720" height="1380" viewBox="0 0 720 1380" font-family="sans-serif">
  <style>
    .grp { fill-opacity: 0.15; stroke-width: 0.5; }
    .leaf { fill-opacity: 0.25; stroke-width: 0.5; }
    .group-title { font-size: 14px; font-weight: 500; }
    .group-sub { font-size: 12px; fill-opacity: 0.7; }
    .leaf-title { font-size: 13px; font-weight: 500; }
    .leaf-sub { font-size: 11px; fill-opacity: 0.7; }
    .docfoot { font-size: 11px; fill: #666; }
    .c-purple { fill: #7F77DD; stroke: #534AB7; }
    .c-purple text { fill: #26215C; }
    .c-teal { fill: #1D9E75; stroke: #0F6E56; }
    .c-teal text { fill: #04342C; }
    .c-coral { fill: #D85A30; stroke: #993C1D; }
    .c-coral text { fill: #4A1B0C; }
    .c-pink { fill: #D4537E; stroke: #993556; }
    .c-pink text { fill: #4B1528; }
    .c-blue { fill: #378ADD; stroke: #185FA5; }
    .c-blue text { fill: #042C53; }
    .c-amber { fill: #BA7517; stroke: #854F0B; }
    .c-amber text { fill: #412402; }
    .c-green { fill: #639922; stroke: #3B6D11; }
    .c-green text { fill: #173404; }
    .c-gray { fill: #888780; stroke: #5F5E5A; }
    .c-gray text { fill: #2C2C2A; }
  </style>

  <text x="40" y="30" font-size="16" font-weight="500" fill="#222">Curvz user manual — outline v1</text>
  <text x="40" y="48" class="docfoot">8 chapters · 30 sections · 41 leaf topics · locked s114</text>

  <!-- 1. Getting started -->
  <g class="c-purple"><rect class="grp" x="40" y="70" width="640" height="120" rx="14"/>
    <text class="group-title" x="60" y="98">1. Getting started</text>
    <text class="group-sub" x="60" y="116">First-contact reading, in order</text></g>
  <g class="c-purple"><rect class="leaf" x="60" y="130" width="190" height="50" rx="8"/>
    <text class="leaf-title" x="155" y="154" text-anchor="middle">1.1 Welcome</text>
    <text class="leaf-sub" x="155" y="170" text-anchor="middle">stub exists</text></g>
  <g class="c-purple"><rect class="leaf" x="265" y="130" width="190" height="50" rx="8"/>
    <text class="leaf-title" x="360" y="154" text-anchor="middle">1.2 About Curvz</text>
    <text class="leaf-sub" x="360" y="170" text-anchor="middle">stub exists</text></g>
  <g class="c-purple"><rect class="leaf" x="470" y="130" width="200" height="50" rx="8"/>
    <text class="leaf-title" x="570" y="152" text-anchor="middle">1.3 Workspace tour</text>
    <text class="leaf-sub" x="570" y="170" text-anchor="middle">layout · undo · tabs · help</text></g>

  <!-- 2. Documents and files -->
  <g class="c-teal"><rect class="grp" x="40" y="210" width="640" height="120" rx="14"/>
    <text class="group-title" x="60" y="238">2. Documents and files</text>
    <text class="group-sub" x="60" y="256">Projects, templates, save, import, export</text></g>
  <g class="c-teal"><rect class="leaf" x="60" y="270" width="190" height="50" rx="8"/>
    <text class="leaf-title" x="155" y="294" text-anchor="middle">2.1 Projects &amp; documents</text>
    <text class="leaf-sub" x="155" y="310" text-anchor="middle">new · save · open</text></g>
  <g class="c-teal"><rect class="leaf" x="265" y="270" width="190" height="50" rx="8"/>
    <text class="leaf-title" x="360" y="294" text-anchor="middle">2.2 Templates</text>
    <text class="leaf-sub" x="360" y="310" text-anchor="middle">starter · saved</text></g>
  <g class="c-teal"><rect class="leaf" x="470" y="270" width="200" height="50" rx="8"/>
    <text class="leaf-title" x="570" y="294" text-anchor="middle">2.3 Import &amp; export</text>
    <text class="leaf-sub" x="570" y="310" text-anchor="middle">SVG · PNG · theme bundle</text></g>

  <!-- 3. Tools -->
  <g class="c-coral"><rect class="grp" x="40" y="350" width="640" height="240" rx="14"/>
    <text class="group-title" x="60" y="378">3. Tools</text>
    <text class="group-sub" x="60" y="396">15 tools — overview hub plus per-tool pages</text></g>
  <g class="c-coral"><rect class="leaf" x="60" y="410" width="190" height="50" rx="8"/>
    <text class="leaf-title" x="155" y="434" text-anchor="middle">3.1 Tools overview</text>
    <text class="leaf-sub" x="155" y="450" text-anchor="middle">stub exists — hub</text></g>
  <g class="c-coral"><rect class="leaf" x="265" y="410" width="190" height="50" rx="8"/>
    <text class="leaf-title" x="360" y="434" text-anchor="middle">3.2 Selection &amp; Node</text>
    <text class="leaf-sub" x="360" y="450" text-anchor="middle">3.2.1 · 3.2.2</text></g>
  <g class="c-coral"><rect class="leaf" x="470" y="410" width="200" height="50" rx="8"/>
    <text class="leaf-title" x="570" y="434" text-anchor="middle">3.3 Pen</text>
    <text class="leaf-sub" x="570" y="450" text-anchor="middle">walkthrough page</text></g>
  <g class="c-coral"><rect class="leaf" x="60" y="470" width="190" height="50" rx="8"/>
    <text class="leaf-title" x="155" y="494" text-anchor="middle">3.4 Shape tools</text>
    <text class="leaf-sub" x="155" y="510" text-anchor="middle">3.4.1 – 3.4.5</text></g>
  <g class="c-coral"><rect class="leaf" x="265" y="470" width="190" height="50" rx="8"/>
    <text class="leaf-title" x="360" y="494" text-anchor="middle">3.5 Text family</text>
    <text class="leaf-sub" x="360" y="510" text-anchor="middle">3.5.1 · 3.5.2</text></g>
  <g class="c-coral"><rect class="leaf" x="470" y="470" width="200" height="50" rx="8"/>
    <text class="leaf-title" x="570" y="494" text-anchor="middle">3.6 Utility tools</text>
    <text class="leaf-sub" x="570" y="510" text-anchor="middle">3.6.1 – 3.6.3</text></g>
  <g class="c-coral"><rect class="leaf" x="60" y="530" width="190" height="50" rx="8"/>
    <text class="leaf-title" x="155" y="554" text-anchor="middle">3.7 Reference points</text>
    <text class="leaf-sub" x="155" y="570" text-anchor="middle">Ref tool</text></g>
  <g class="c-coral"><rect class="leaf" x="265" y="530" width="190" height="50" rx="8"/>
    <text class="leaf-title" x="360" y="554" text-anchor="middle">3.8 Corner</text>
    <text class="leaf-sub" x="360" y="570" text-anchor="middle">corner treatments</text></g>

  <!-- 4. Working with objects -->
  <g class="c-pink"><rect class="grp" x="40" y="610" width="640" height="180" rx="14"/>
    <text class="group-title" x="60" y="638">4. Working with objects</text>
    <text class="group-sub" x="60" y="656">Selection, layers, arrangement, clip, blend, warp</text></g>
  <g class="c-pink"><rect class="leaf" x="60" y="670" width="190" height="50" rx="8"/>
    <text class="leaf-title" x="155" y="694" text-anchor="middle">4.1 Layers</text>
    <text class="leaf-sub" x="155" y="710" text-anchor="middle">panel · lock · DnD</text></g>
  <g class="c-pink"><rect class="leaf" x="265" y="670" width="190" height="50" rx="8"/>
    <text class="leaf-title" x="360" y="694" text-anchor="middle">4.2 Arrange &amp; transform</text>
    <text class="leaf-sub" x="360" y="710" text-anchor="middle">order · flip · duplicate · clone</text></g>
  <g class="c-pink"><rect class="leaf" x="470" y="670" width="200" height="50" rx="8"/>
    <text class="leaf-title" x="570" y="694" text-anchor="middle">4.3 Step and Repeat</text>
    <text class="leaf-sub" x="570" y="710" text-anchor="middle">array dialog</text></g>
  <g class="c-pink"><rect class="leaf" x="60" y="730" width="295" height="50" rx="8"/>
    <text class="leaf-title" x="207" y="760" text-anchor="middle">4.4 Clip masks</text></g>
  <g class="c-pink"><rect class="leaf" x="375" y="730" width="295" height="50" rx="8"/>
    <text class="leaf-title" x="522" y="760" text-anchor="middle">4.5 Blends &amp; warps</text></g>

  <!-- 5. Path operations -->
  <g class="c-blue"><rect class="grp" x="40" y="810" width="640" height="120" rx="14"/>
    <text class="group-title" x="60" y="838">5. Path operations</text>
    <text class="group-sub" x="60" y="856">The Path menu — boolean, compound, derived geometry</text></g>
  <g class="c-blue"><rect class="leaf" x="60" y="870" width="190" height="50" rx="8"/>
    <text class="leaf-title" x="155" y="894" text-anchor="middle">5.1 Editing paths</text>
    <text class="leaf-sub" x="155" y="910" text-anchor="middle">node fundamentals</text></g>
  <g class="c-blue"><rect class="leaf" x="265" y="870" width="190" height="50" rx="8"/>
    <text class="leaf-title" x="360" y="894" text-anchor="middle">5.2 Boolean operations</text>
    <text class="leaf-sub" x="360" y="910" text-anchor="middle">union · subtract · intersect</text></g>
  <g class="c-blue"><rect class="leaf" x="470" y="870" width="200" height="50" rx="8"/>
    <text class="leaf-title" x="570" y="894" text-anchor="middle">5.3 Compound &amp; derived</text>
    <text class="leaf-sub" x="570" y="910" text-anchor="middle">offset · expand · text-to-path</text></g>

  <!-- 6. Style and appearance -->
  <g class="c-amber"><rect class="grp" x="40" y="950" width="640" height="180" rx="14"/>
    <text class="group-title" x="60" y="978">6. Style and appearance</text>
    <text class="group-sub" x="60" y="996">Fill, stroke, swatches, styles, themes, currentColor</text></g>
  <g class="c-amber"><rect class="leaf" x="60" y="1010" width="190" height="50" rx="8"/>
    <text class="leaf-title" x="155" y="1034" text-anchor="middle">6.1 Fill &amp; stroke</text>
    <text class="leaf-sub" x="155" y="1050" text-anchor="middle">PaintEditor</text></g>
  <g class="c-amber"><rect class="leaf" x="265" y="1010" width="190" height="50" rx="8"/>
    <text class="leaf-title" x="360" y="1034" text-anchor="middle">6.2 Swatches &amp; palettes</text>
    <text class="leaf-sub" x="360" y="1050" text-anchor="middle">bundled .gpl</text></g>
  <g class="c-amber"><rect class="leaf" x="470" y="1010" width="200" height="50" rx="8"/>
    <text class="leaf-title" x="570" y="1034" text-anchor="middle">6.3 Styles</text>
    <text class="leaf-sub" x="570" y="1050" text-anchor="middle">reusable appearance</text></g>
  <g class="c-amber"><rect class="leaf" x="60" y="1070" width="295" height="50" rx="8"/>
    <text class="leaf-title" x="207" y="1094" text-anchor="middle">6.4 Themes</text>
    <text class="leaf-sub" x="207" y="1110" text-anchor="middle">project-wide colour swap</text></g>
  <g class="c-amber"><rect class="leaf" x="375" y="1070" width="295" height="50" rx="8"/>
    <text class="leaf-title" x="522" y="1094" text-anchor="middle">6.5 currentColor &amp; symbolic icons</text>
    <text class="leaf-sub" x="522" y="1110" text-anchor="middle">why icons recolour at runtime</text></g>

  <!-- 7. Layout and precision -->
  <g class="c-green"><rect class="grp" x="40" y="1150" width="640" height="120" rx="14"/>
    <text class="group-title" x="60" y="1178">7. Layout and precision</text>
    <text class="group-sub" x="60" y="1196">View options, snap, grid, units</text></g>
  <g class="c-green"><rect class="leaf" x="60" y="1210" width="190" height="50" rx="8"/>
    <text class="leaf-title" x="155" y="1234" text-anchor="middle">7.1 View options</text>
    <text class="leaf-sub" x="155" y="1250" text-anchor="middle">rulers · guides · outline</text></g>
  <g class="c-green"><rect class="leaf" x="265" y="1210" width="190" height="50" rx="8"/>
    <text class="leaf-title" x="360" y="1234" text-anchor="middle">7.2 Snap &amp; grid</text>
    <text class="leaf-sub" x="360" y="1250" text-anchor="middle">guides · grid · margins</text></g>
  <g class="c-green"><rect class="leaf" x="470" y="1210" width="200" height="50" rx="8"/>
    <text class="leaf-title" x="570" y="1234" text-anchor="middle">7.3 Units</text>
    <text class="leaf-sub" x="570" y="1250" text-anchor="middle">px · in · mm · pt</text></g>

  <!-- 8. Reference -->
  <g class="c-gray"><rect class="grp" x="40" y="1290" width="640" height="80" rx="14"/>
    <text class="group-title" x="60" y="1318">8. Reference</text>
    <text class="group-sub" x="60" y="1336">Look-it-up pages, last in nav</text></g>
  <g class="c-gray"><rect class="leaf" x="60" y="1340" width="190" height="22" rx="6"/>
    <text class="leaf-title" x="155" y="1356" text-anchor="middle">8.1 Macros</text></g>
  <g class="c-gray"><rect class="leaf" x="265" y="1340" width="190" height="22" rx="6"/>
    <text class="leaf-title" x="360" y="1356" text-anchor="middle">8.2 Keyboard shortcuts</text></g>
  <g class="c-gray"><rect class="leaf" x="470" y="1340" width="200" height="22" rx="6"/>
    <text class="leaf-title" x="570" y="1356" text-anchor="middle">8.3 Troubleshooting</text></g>
</svg>
